<?xml version="1.0" encoding="utf-8"?>
<!-- Generator: Adobe Illustrator 23.0.3, SVG Export Plug-In . SVG Version: 6.00 Build 0)  -->
<svg version="1.1" id="Calque_1" xmlns="http://www.w3.org/2000/svg" xmlns:xlink="http://www.w3.org/1999/xlink" x="0px" y="0px"
	 viewBox="0 0 26.6 37.5" style="enable-background:new 0 0 26.6 37.5;" xml:space="preserve">
<style type="text/css">
	.st0{fill:#DEDEDE;}
	.st1{fill:none;}
</style>
<title>LOGO INDEX GRIS</title>
<path class="st0" d="M8.1,15.1c0,0.1,0,0.2,0,0.2c0.1,0,0.2,0,0.4,0c0-0.1,0-0.1,0-0.2L8.1,15.1z M7.1,13.1c-0.1,0-0.3,0-0.4,0.1
	s0,0.1,0,0.2l0.5-0.1L7.1,13.1z M6.2,13.5l-0.4,0.2L6,13.9l0.4-0.3L6.2,13.5z M8.2,11.5c0.3,0.3,0.4,0.2,0.5-0.1L8.2,11.5z M4.1,5.3
	L3.4,5.6c0,0.1,0,0.1,0.1,0.2l0.6-0.3C4.1,5.4,4.1,5.4,4.1,5.3z M7.1,10.3l-0.5,0.2c0,0.1,0,0.1,0.1,0.2l0.5-0.2L7.1,10.3z
	 M22.7,7.8l-0.1,0.1l0.4,0.7l0.1-0.1C23,8.2,22.9,8,22.7,7.8L22.7,7.8z M7.4,33.6c0.4,0,0.5-0.2,0.5-0.5C7.6,33.1,7.5,33.2,7.4,33.6
	z M0.4,17.5c-0.3,0.2-0.4,0.5-0.3,0.8C0.3,18.1,0.5,17.9,0.4,17.5L0.4,17.5z M16.9,2L16.9,2l0.5,0.7C17.3,2.3,17.2,2.1,16.9,2z
	 M7.8,11.7c-0.3-0.1-0.6,0-0.7,0.2c0,0,0,0.1,0,0.1l0.8-0.2L7.8,11.7z M23.3,9.9c-0.1,0.3,0,0.6,0.3,0.8c0.1,0,0.1,0,0.2,0L23.3,9.9
	z M7.4,35.6l-1,0.1c0,0,0,0.1,0,0.1l0,0h0.3c0.3,0,0.5,0,0.8-0.1C7.4,35.7,7.4,35.6,7.4,35.6z M20.2,4.7c-0.1,0.1-0.3,0.1-0.4,0.2
	l0.3,0.3l0.3-0.3C20.4,4.8,20.3,4.7,20.2,4.7z M12.2,1.2L12.2,1.2c0.2,0.4,0.5,0.4,0.8,0L12.2,1.2z M3.4,6.7
	C3.2,6.8,3.1,6.9,2.9,7.1c0,0.1,0,0.2,0,0.2c0.1,0.1,0.2,0.1,0.3,0C3.3,7.2,3.4,7,3.5,6.9C3.5,6.8,3.4,6.8,3.4,6.7z M12.7,27.3
	c0.1,0.1,0.2,0.2,0.4,0.2v-0.3L12.7,27.3z M25.7,18.8L25.7,18.8c-0.1,0.4,0,0.8,0.4,1C26,19.5,25.9,19.1,25.7,18.8z M10.6,0.2
	c0.4,0.2,0.7,0.1,0.9-0.1C11.2,0,10.8,0,10.6,0.2z M10.1,35.3l0.1,0.1c0.3,0.1,0.6,0,0.8-0.3c0-0.1,0-0.1,0-0.2L10.1,35.3z
	 M8.9,35.2L8.9,35.2L8.9,35.2H8.8l-0.6,0.3l0.1,0.1c0.2,0.1,0.5,0,0.7-0.2C9,35.4,9,35.3,8.9,35.2L8.9,35.2z M24.3,11.1l-0.1,0.1
	c0.1,0.4,0.3,0.8,0.6,1.2l0.1-0.1C24.7,11.8,24.5,11.5,24.3,11.1z M15.5,36.8c-0.2,0-0.5,0.1-0.7,0.2v0.2c0.2,0,0.5,0,0.7,0
	c0.1,0,0.1-0.1,0.2-0.2S15.6,36.8,15.5,36.8z M11.7,7.9c0.1,0.4,0.4,0.6,0.8,0.5C12.4,8.1,12.1,7.9,11.7,7.9z M22.7,6.3l-0.1,0.1
	c0,0.5,0.2,0.9,0.6,1.1L22.7,6.3z M1,25c-0.3,0.2-0.5,0.5-0.4,0.9C0.9,25.8,1.1,25.4,1,25C1,25,1,25,1,25z M2.7,8.8
	c0.4,0,0.7-0.3,0.8-0.8C3.1,8.1,2.8,8.4,2.7,8.8z M5.2,4c0.4,0,0.8-0.2,1-0.6C5.8,3.4,5.4,3.6,5.2,4z M11.2,3.1
	c-0.4-0.1-0.7,0-1,0.3h1c0,0,0,0,0-0.1S11.2,3.1,11.2,3.1L11.2,3.1z M7.8,25.8c-0.3,0.2-0.5,0.5-0.4,0.9c0.3-0.1,0.5-0.4,0.4-0.8
	C7.8,25.9,7.8,25.9,7.8,25.8L7.8,25.8z M14.6,3.2c0.2,0.4,0.6,0.7,1,0.7C15.5,3.4,15,3.1,14.6,3.2L14.6,3.2z M9.1,0.8
	C8.9,0.9,8.7,0.9,8.6,1c0.1,0.3,0.3,0.2,0.5,0.2c0.2,0,0.3-0.1,0.5-0.2L9.1,0.8z M4.4,5.9C4.2,6,4,6.1,3.8,6.2
	C3.6,6.3,3.7,6.4,3.8,6.5c0,0.1,0.1,0.1,0.2,0.1c0.2,0,0.4-0.1,0.6-0.2c0.1,0,0.1-0.2,0.1-0.2S4.5,6,4.4,5.9z M24.7,13
	c0,0.5,0.4,0.9,0.7,1.3C25.3,13.8,25.1,13.3,24.7,13z M19.9,3.1c0.1,0.5,0.5,1,1,1.2C20.7,3.8,20.3,3.4,19.9,3.1z M9.7,2.5
	c-0.3,0-0.6,0-0.9,0c-0.1,0-0.1,0.2-0.2,0.2c0.1,0,0.2,0.1,0.3,0.1c0.2,0,0.4,0,0.6-0.1C9.6,2.7,9.6,2.6,9.7,2.5L9.7,2.5z M23.4,8.7
	l0.8,1.4C24.2,9.4,23.9,8.8,23.4,8.7z M6.4,9.7c0,0-0.1,0.1-0.1,0.2c0,0.1,0.1,0.1,0.2,0.1c0.3-0.1,0.7-0.1,0.9-0.5
	C7.1,9.4,6.7,9.5,6.4,9.7L6.4,9.7z M13.4,1.5c0,0-0.1,0.1-0.2,0.2s0.4,0.5,0.6,0.5C14,2.1,14,2,14.1,1.9C14.1,1.7,13.7,1.4,13.4,1.5
	L13.4,1.5z M7.4,2.7c-0.3,0-0.6,0.2-0.6,0.4c0,0,0.1,0.2,0.1,0.2c0.2-0.1,0.4-0.2,0.6-0.3C7.5,3,7.6,2.9,7.6,2.8
	C7.5,2.8,7.4,2.7,7.4,2.7L7.4,2.7z M21.4,4.7c-0.2,0.7,0.5,0.8,0.7,1.2C22,5.4,21.8,5,21.4,4.7L21.4,4.7z M13.2,0.8
	c0.3,0.4,0.9,0.5,1.3,0.3C14.2,0.8,13.7,0.7,13.2,0.8z M22.1,8.2c0,0.6,0.3,1.1,0.8,1.3C22.8,9,22.5,8.5,22.1,8.2L22.1,8.2z
	 M0.5,15.2c0.4-0.4,0.6-0.9,0.8-1.5C0.8,13.9,0.3,14.8,0.5,15.2L0.5,15.2z M15.2,33.9c-0.4,0.2-0.8,0.4-1.1,0.5l0,0.1
	c0.4-0.1,0.8-0.2,1.2-0.3c0.1,0,0.1-0.2,0.2-0.3C15.4,34,15.2,33.9,15.2,33.9z M26.5,23.1c0-0.1-0.1-0.1-0.2-0.2
	c0,0.1-0.2,0.2-0.1,0.3c0.1,0.4,0.2,0.9,0.3,1.3h0.2C26.6,24,26.5,23.6,26.5,23.1z M7.9,36.1c0.5,0.2,1.1,0.1,1.5-0.3
	C9.2,35.7,8.3,35.9,7.9,36.1L7.9,36.1z M16.2,1.6c-0.3-0.2-0.6-0.4-1-0.5l-0.1,0.1c0.1,0.1,0.1,0.2,0.2,0.3C15.5,1.7,15.7,1.8,16,2
	c0.1,0,0.2,0,0.3,0C16.2,1.9,16.2,1.7,16.2,1.6z M2,25.2c-0.1,0-0.1,0-0.2,0c-0.4,0.5-0.7,1.2-0.7,1.8c0,0,0.1,0,0.1-0.1
	c0.3-0.5,0.5-1.1,0.8-1.7C2,25.3,2,25.3,2,25.2z M10.4,1c-0.1,0.1-0.2,0.2-0.1,0.3c0.5,0.2,1,0.2,1.4,0C11.4,1,10.9,0.9,10.4,1z
	 M0.9,22.1c0,0-0.1,0.1-0.1,0.1c-0.1,0.3-0.2,0.7-0.3,1c0,0.1,0,0.3-0.1,0.4L0.4,24l0,0h0.1c0.5-0.5,0.3-1.2,0.6-1.8
	C1,22.2,0.9,22.2,0.9,22.1z M18.1,33.8c-0.5,0.1-1,0.2-1.5,0.3c0,0-0.1,0.1-0.1,0.2c0,0.1,0.1,0.1,0.2,0.1l1.5-0.5c0,0,0,0,0-0.1
	S18.1,33.8,18.1,33.8z M8.5,12.2l-1.2,0.2l0,0l-0.2,0.2c0.1,0,0.1,0.1,0.2,0.2c0.3,0.1,0.7,0.1,1-0.1c0.1-0.1,0.3-0.3,0.4-0.4
	L8.5,12.2z M17.9,32.7L17.9,32.7c-0.1,0-0.2,0-0.3,0c-0.4,0.4-0.8,0.6-1.3,0.7c-0.2,0.1-0.3,0.1-0.5,0.2c0.1,0,0.2,0.1,0.2,0.1
	c0.7-0.1,1.3-0.4,1.8-0.8C18,32.9,17.9,32.8,17.9,32.7z M7.5,2.3L9.8,2C9.4,1.6,7.9,1.8,7.5,2.3z M7,11.2c-0.5,0.3-1.1,0.6-1.6,1
	c0,0,0,0.1,0,0.2h0.2c0,0,0.1,0,0.1,0c0.4-0.3,0.8-0.6,1.3-0.9c0.1-0.1,0.2-0.2,0.3-0.3C7.1,11.2,7.1,11.2,7,11.2z M14.3,37.2
	c-0.1,0-0.3,0-0.5,0h-0.9h-0.2c-0.1,0-0.2,0-0.3,0c-0.1,0-0.2,0.1-0.3,0.2c0.1,0,0.2,0.2,0.3,0.2c0.5,0,1,0,1.6,0
	c0.1,0,0.2-0.1,0.3-0.1S14.3,37.2,14.3,37.2L14.3,37.2z M12.8,33.5c-0.5,0.2-0.9,0.5-1.2,0.9c0.6,0.1,1.2-0.2,1.5-0.8
	C13.1,33.4,12.9,33.4,12.8,33.5L12.8,33.5z M22,33.7l-0.1,0.1c0.1,0.1,0.1,0.2,0.2,0.3l0,0l0.1-0.1c0.1-0.1,0.1-0.2,0.2-0.3
	C22.2,33.7,22.1,33.7,22,33.7L22,33.7z M11.3,37c-0.4,0-0.9,0-1.4,0H9.5c0,0,0,0.1,0,0.1c0.6,0.2,1.2,0.3,1.9,0.3
	c0.1,0,0.2-0.1,0.3-0.2C11.5,37.2,11.4,37,11.3,37L11.3,37z M19.1,2.3c-0.3-0.5-0.9-0.8-1.5-0.8c-0.1,0-0.2,0-0.3,0.1
	c0.1,0.1,0.1,0.1,0.2,0.2c0.1,0,0.1,0.1,0.2,0.1c0.4,0,0.7,0.2,1,0.5c0.1,0.1,0.3,0.2,0.4,0.3l0.1-0.1C19.2,2.5,19.2,2.4,19.1,2.3z
	 M13.1,34.6c-0.5,0.3-1.3,0.1-1.6,0.9c0.5-0.1,1-0.3,1.5-0.5c0.1,0,0.1-0.2,0.2-0.4L13.1,34.6z M7,27c-0.1,0-0.2,0.1-0.3,0.1
	c-0.2,0.2-0.4,0.5-0.6,0.7c-0.2,0.3-0.4,0.6-0.6,0.9c0,0,0.1,0.1,0.1,0.1c0.1-0.1,0.2-0.2,0.3-0.3C6,28.4,6.2,28.2,6.4,28
	s0.4-0.4,0.6-0.6S7,27.1,7,27z M1.9,22.3c-0.1,0.1-0.3,0.3-0.3,0.4c-0.1,0.4-0.2,0.9-0.3,1.3c0,0.1,0,0.2,0,0.2h0.1
	c0.1-0.1,0.2-0.2,0.2-0.4c0.2-0.4,0.3-0.8,0.4-1.1C2,22.7,1.9,22.5,1.9,22.3z M14.9,5.6l1.8,1.6l0.1-0.1C16.3,6.3,15.4,5.5,14.9,5.6
	L14.9,5.6z M13.4,36.3c0.9,0.2,2.2,0.1,2.3-0.5C14.9,35.9,14.2,36.1,13.4,36.3z M7,33.7l-2.1,1c0,0,0,0.1,0,0.1c0.1,0,0.1,0,0.2,0
	C5.8,34.7,6.4,34.5,7,34C7,34,7.1,33.8,7,33.7L7,33.7z M26,24.1c0-0.1-0.1-0.1-0.1-0.2c0,0-0.1-0.1-0.2,0c0,0.1-0.1,0.1-0.1,0.2
	c0.2,0.7,0.4,1.4,0.5,2h0.1c0-0.1,0.1-0.2,0.1-0.4C26.2,25.2,26.1,24.6,26,24.1L26,24.1z M1.7,10.6C2.4,10.2,3,9.7,3.6,9
	C2.7,9.2,2,9.8,1.7,10.6z M11.9,36c-0.3,0-0.6,0.1-1,0.2l-0.9,0.1c0,0.1,0,0.1,0.1,0.1c0,0,0.1,0,0.1,0c0.6,0,1.2,0,1.8-0.1
	c0.1,0,0.2-0.2,0.3-0.3C12.1,36.1,12,36,11.9,36z M18.3,34.5c-0.6,0.2-1.2,0.5-1.8,0.9c0,0,0,0.1,0,0.1c0.1,0,0.2,0,0.4,0
	c0.5-0.2,1-0.4,1.5-0.6c0.1,0,0.1-0.2,0.1-0.3S18.4,34.5,18.3,34.5z M18,3c-0.1,0-0.1,0.1-0.2,0.1c0,0,0,0.1,0.1,0.2
	c0.1,0.1,0.2,0.1,0.3,0.1c0.4,0.1,0.8,0.4,0.9,0.8c0.1,0.1,0.1,0.2,0.2,0.3c0.2-0.6-0.2-1.3-0.8-1.5C18.3,3,18.2,3,18,3z M22.2,7.1
	c-0.4-0.5-0.8-1-1.2-1.5c-0.1-0.1-0.2-0.1-0.3-0.1c0,0.1,0,0.2,0.1,0.3c0.4,0.4,0.7,0.9,1.1,1.3c0,0.1,0.1,0.1,0.2,0.2
	c0.1,0,0.1,0,0.2-0.1C22.3,7.2,22.2,7.2,22.2,7.1z M15.1,4.9l2.1,1.8l0.1-0.1C17.2,5.8,15.7,4.7,15.1,4.9z M11.3,32.4
	c0,0,0,0.1,0,0.2s0.2,0,0.2,0s0.3-0.2,0.5-0.3l1.1-0.9V31C12.3,31.2,11.9,32,11.3,32.4z M22.1,9.7c-0.2,0.2-0.2,0.5,0,0.7
	c0.4,0.5,0.8,1,1.1,1.4c0.1,0.1,0.2,0.2,0.3,0.2l0.1-0.1L22.1,9.7z M3.5,26.7c-0.1,0-0.2,0.1-0.3,0.2c-0.5,0.6-1,1.2-1.4,1.8
	c-0.1,0.1-0.2,0.3-0.3,0.4l0.1,0c0.1,0,0.2-0.1,0.2-0.1c0.5-0.5,1.1-1,1.6-1.6c0.1-0.1,0.2-0.2,0.2-0.3C3.6,26.9,3.5,26.8,3.5,26.7
	L3.5,26.7z M10.6,2.4C10.6,2.4,10.7,2.5,10.6,2.4c1,0.1,2,0.3,2.9,0.7c0,0,0.1,0,0.1,0C13.2,2.2,11.2,2,10.6,2.4z M14.3,4.3
	c-0.1-0.1-0.1-0.1-0.2-0.2c-0.7-0.4-1.4-0.7-2.1-0.8c-0.1,0-0.2,0-0.2,0.1s0,0.2,0.1,0.2c0.2,0.1,0.4,0.2,0.6,0.2
	c0.5,0,1,0.2,1.3,0.6c0.1,0.1,0.3,0.2,0.4,0.2c0.1,0,0.2,0,0.2-0.1C14.3,4.5,14.3,4.4,14.3,4.3z M3.9,7.8c0.1,0,0.2-0.1,0.2-0.1
	c0.7-0.6,1.5-1.1,2.5-1.3C6.7,6.3,6.9,6.2,7,6.1C6.3,5.8,4.8,6.6,3.9,7.8z M13.1,26.6c0,0-0.1,0-0.1-0.1c-0.1,0-0.1,0-0.2,0
	c0,0,0,0,0-0.1c-0.3,0.1-0.6,0.2-0.9,0.3c-0.3,0.1-0.5,0.2-0.8,0.4c-0.1,0.1-0.2,0.2-0.3,0.3l0.3,0.1h0.1h0.1l1-0.3l1-0.3l0,0
	c0-0.1,0.1-0.1,0.1-0.2C13.2,26.6,13.1,26.6,13.1,26.6z M16.5,7.7c-0.3-0.3-0.6-0.6-0.9-0.8c-0.3-0.3-0.7-0.5-1-0.7
	c-0.1-0.1-0.2,0-0.3,0c0.1,0.1,0.1,0.2,0.2,0.3C14.7,6.7,15,6.8,15.2,7l1.4,1.2c0.1,0,0.1,0.1,0.2,0.1l0.1-0.1
	C16.7,8.1,16.6,7.9,16.5,7.7z M18.6,35.7l-0.3,0.1L18,35.9l-0.6,0.2l-0.6,0.2c-0.2,0.1-0.4,0.2-0.7,0.3c0,0,0,0.1,0,0.1
	c0.1,0,0.2,0,0.3,0c0.6-0.1,1.3-0.3,1.9-0.5c0.2-0.1,0.3-0.1,0.4-0.3c0.1-0.1,0.1-0.2,0.1-0.3C18.8,35.8,18.6,35.7,18.6,35.7
	L18.6,35.7z M12.3,0.2c0.4,0.1,0.8,0.2,1.3,0.2c0.7,0,1.4,0.1,2,0.4c0.2,0.1,0.4,0.1,0.6,0.1C15.7,0.2,13-0.3,12.3,0.2z M12.6,32.8
	c0,0-0.3,0-0.4,0c-0.7,0.4-1.4,0.8-2.1,1.3c-0.3,0.1-0.5,0.4-0.6,0.8l2.3-1.4c0.2-0.1,0.3-0.2,0.5-0.3C12.6,33,12.7,32.9,12.6,32.8z
	 M14.4,7.5L14.4,7.5c0,0.1,0,0.2,0.1,0.2c0,0,0,0,0,0.1c0.9,0.6,1.8,1.2,2.7,1.8c0,0,0.1,0,0.2,0C17.2,9.1,14.9,7.4,14.4,7.5z
	 M15.7,34.5c-0.1,0-0.2,0-0.3,0.1l-2,0.9l-0.5,0.3v0.1c0,0,0.1,0,0.1,0c1-0.1,1.9-0.5,2.8-1c0.1,0,0.1-0.1,0.1-0.2
	C15.8,34.6,15.7,34.6,15.7,34.5L15.7,34.5z M4.4,28.5c0,0-0.1,0.1-0.1,0.1c-0.4,0.4-0.8,0.8-1.2,1.2c-0.3,0.3-0.5,0.6-0.8,1
	c-0.1,0.2-0.1,0.3-0.2,0.5h0.1l0.2-0.2c0.5-0.8,1.2-1.4,1.9-2c0.1-0.1,0.3-0.2,0.4-0.4c0.1-0.1,0.1-0.3,0.1-0.4
	C4.6,28.4,4.5,28.5,4.4,28.5L4.4,28.5z M13.8,8.1c-0.2-0.2-0.5-0.4-0.8-0.6c-0.6-0.3-1.2-0.4-1.8-0.7l-0.6-0.2l-0.3,0.2
	C10.4,6.9,10.4,7,10.5,7c0.1,0.1,0.3,0.1,0.4,0.1c0.9,0.1,1.8,0.5,2.5,1.2l0.1,0.1h0.1h0.1h0.2C13.9,8.3,13.9,8.2,13.8,8.1L13.8,8.1
	z M4.3,31.2c-0.4,0.3-0.8,0.7-1.2,1c-0.2,0.1-0.4,0.2-0.4,0.5c0.2,0,0.4-0.1,0.6-0.2c0.6-0.5,1.2-1,1.8-1.4c0.2-0.1,0.3-0.3,0.4-0.5
	c0.1-0.2,0.1-0.3,0.1-0.5C5.1,30.5,4.7,30.8,4.3,31.2z M16.2,13.3L16,13.1l-0.2-0.2c-0.1-0.2-0.3-0.3-0.4-0.5s-0.2-0.2-0.3-0.3
	c-0.2-0.3-0.5-0.5-0.8-0.7c-0.2-0.1-0.4-0.3-0.5-0.4c-0.2-0.1-0.5-0.2-0.7-0.3L13,10.9c0.6,0.5,1.3,1,1.9,1.6s1.1,1.2,1.7,1.7
	C16.5,13.9,16.3,13.6,16.2,13.3z M3.2,25.1c0,0-0.2,0-0.2,0.1c-0.3,0.4-0.5,0.8-0.7,1.2c-0.2,0.6-0.6,1.2-1,1.7
	c-0.1,0.1-0.1,0.1-0.1,0.2c0,0.1,0,0.1,0,0.2c0,0,0.1,0,0.2,0c0.1-0.1,0.3-0.3,0.4-0.5c0.3-0.4,0.6-0.8,0.8-1.1s0.5-0.8,0.8-1.2
	c0-0.1,0.1-0.2,0.1-0.3C3.4,25.2,3.3,25.1,3.2,25.1z M21.7,30.4c-0.3,0.2-0.6,0.4-0.9,0.6l-0.2,0.1c0,0.1,0.1,0.2,0.1,0.3l1.2-0.7
	c0.1-0.1,0.2-0.2,0.3-0.3C22,30.4,21.8,30.3,21.7,30.4L21.7,30.4z M9.7,6.7c-0.1,0-0.2-0.1-0.3-0.1c-0.1,0-0.2,0-0.4,0
	c-0.7,0-1.4,0-2.1,0.1C6.4,6.9,5.8,7,5.3,7.3C5.1,7.4,5,7.5,4.9,7.6v0.1c0.1,0,0.2,0,0.3,0c0.5-0.1,1-0.3,1.5-0.5
	C7.1,7.1,7.5,7,7.9,7C8.3,7,8.7,7,9,7c0.2,0,0.4-0.1,0.6-0.1L9.7,6.7L9.7,6.7z M25.3,15.3c-0.8-0.9-1.5-1.9-2.3-2.9
	c-0.1-0.1-0.2-0.2-0.3-0.2c-0.1,0-0.2,0-0.3,0c0,0.1,0,0.2,0.1,0.2c0.2,0.3,0.4,0.5,0.6,0.7l2,2.5c0.1,0.1,0.1,0.1,0.2,0.2l0.1,0
	C25.4,15.5,25.4,15.4,25.3,15.3z M24,31.6c0,0-0.2,0-0.2,0l-2.3,1.3c0.1,0.1,0.1,0.3,0.2,0.4h0c0.9-0.2,1.4-0.9,2.1-1.3
	c0.1,0,0.1-0.1,0.1-0.2C24,31.8,24,31.7,24,31.6z M0.9,12.9H1c0.8-0.9,1.6-1.6,2.5-2.4c0,0,0.1-0.1,0.1-0.1l0.2-0.6
	C3.1,9.9,0.9,12.3,0.9,12.9z M4.1,27.7c-0.1,0-0.2,0.1-0.3,0.1C3.5,28,3.3,28.3,3,28.5c-0.1,0.1-0.2,0.2-0.3,0.4
	c-0.2,0.2-0.3,0.4-0.5,0.6c-0.2,0.2-0.4,0.4-0.5,0.6c-0.1,0.2-0.1,0.3-0.2,0.5l0.1,0.1c0.1-0.1,0.2-0.1,0.3-0.2c0.5-0.5,1-1,1.5-1.5
	c0.3-0.3,0.5-0.6,0.7-0.9C4.2,28,4.1,27.8,4.1,27.7z M17.3,31.3l-0.2,0.2L17.3,31.3L17.3,31.3z M10.4,33.1c-0.2-0.2-0.4-0.1-0.5,0.1
	c-0.7,0.7-1.6,1.3-2.6,1.6L6.5,35v0.1c0.3,0.1,0.7,0.1,1.1,0c0.9-0.5,1.8-1,2.7-1.5C10.4,33.5,10.6,33.3,10.4,33.1z M22.7,29.8
	c0.2,0.2,0.5,0.3,0.8,0.1l0.3-0.2L22.7,29.8z M26,26.6c-0.1,0.1-0.2,0.2-0.3,0.4c-0.1,0.3-0.3,0.6-0.4,0.9c-0.1,0.2-0.2,0.5-0.4,0.7
	l0.1,0.1c0.1,0.1,0.1,0.1,0.2,0.2l0.1,0.1l0.1-0.2c0.2-0.4,0.4-0.8,0.6-1.3C26.2,27.2,26.1,26.9,26,26.6z M3.3,18
	c-0.1,0-0.2-0.1-0.2,0c-0.2,0.1-0.3,0.3-0.4,0.5c-0.3,1-0.6,1.9-0.9,2.9v0.2c0,0.1,0.1,0.2,0.2,0.3c0.1-0.1,0.2-0.1,0.3-0.2
	c0.1-0.1,0.1-0.2,0.1-0.4c0.3-1,0.7-2.1,1-3.1C3.3,18.2,3.3,18.1,3.3,18z M9.3,3.3c-0.1,0-0.2,0-0.2,0C8.2,3.5,7.4,3.7,6.5,3.9
	C6.1,4.1,5.6,4.3,5.2,4.5C4.9,4.6,4.6,4.8,4.6,5.1L5.1,5l3.7-1.2C9,3.8,9.2,3.7,9.4,3.6c0.1,0,0.1-0.1,0.1-0.2
	C9.5,3.3,9.4,3.3,9.3,3.3L9.3,3.3z M20.5,30l-0.3,0.2l0.2,0.5l1.2-0.8L20.5,30z M25,29.9c-0.2,0.1-0.4,0.3-0.6,0.4
	c-0.2,0.1-0.4,0.2-0.6,0.3c-0.3,0.1-0.6,0.2-0.9,0.3c-0.6,0.3-1.2,0.7-1.8,1.1l0.2,0.3l0.2-0.1l2.8-1.4c0.4-0.2,0.7-0.5,0.9-0.9
	L25,29.9z M6.7,23.3c-0.1,0.1-0.2,0.1-0.4,0.2c-0.1,0.2-0.3,0.3-0.4,0.5c-0.1,0.1-0.2,0.3-0.3,0.4l0.5,0.1C6,24.7,6,24.8,5.9,24.9
	c-0.5,0.7-1,1.4-1.4,2.1c-0.1,0.1-0.2,0.3-0.2,0.5l0.1,0.1c0.1-0.1,0.2-0.2,0.3-0.3c0.3-0.3,0.5-0.6,0.8-0.9c0.6-0.8,1-1.6,1.3-2.5
	C6.9,23.7,6.7,23.5,6.7,23.3z M5.7,10.1c-0.5,0-1,0.2-1.4,0.5c-0.1,0.1-0.3,0.3-0.5,0.4c-0.8,0.5-1.6,1.2-2.1,2
	c0,0.1-0.1,0.2-0.1,0.3v0.1c0.1,0,0.2-0.1,0.3-0.1c0.2-0.2,0.4-0.3,0.5-0.5c0.5-0.6,1.1-1,1.7-1.4c0.6-0.3,1.1-0.7,1.7-1
	c0,0,0.1-0.1,0.1-0.1C5.9,10.1,5.8,10.1,5.7,10.1z M22.1,11.6c-0.5-0.6-1-1.2-1.5-1.8c-0.2-0.3-0.5-0.6-0.8-0.9
	c-0.5-0.6-1.1-1.1-1.7-1.6l-0.1,0.1c0.1,0.3,0.2,0.6,0.4,0.8C19,8.6,19.5,9,19.9,9.4c0.2,0.2,0.4,0.4,0.5,0.7
	c0.2,0.2,0.4,0.5,0.6,0.7s0.5,0.6,0.8,0.9l0.3,0.3l0.1-0.1C22.2,11.8,22.2,11.7,22.1,11.6z M11.9,30.7c-0.1,0.1-0.2,0.1-0.2,0.2
	c-0.2,0.4-0.6,0.6-1,0.8c-0.5,0.2-1.1,0.4-1.6,0.6c-0.3,0.1-0.6,0.2-0.6,0.6c0.4-0.1,0.9-0.2,1.3-0.3c0.7-0.2,1.4-0.5,1.9-1.1
	c0.2-0.2,0.5-0.4,0.7-0.5c0.2-0.2,0.5-0.3,0.7-0.5v-0.5L11.9,30.7z M26.3,21.3c-0.1-0.5-0.4-1-0.8-1.4c-0.2-0.3-0.4-0.6-0.6-0.9
	c-0.6-0.9-1.1-1.7-1.7-2.5c-0.1-0.1-0.3-0.2-0.5-0.3c0,0-0.1,0.1-0.1,0.1c0.3,0.4,0.6,0.8,0.9,1.2c0.1,0.2,0.3,0.4,0.4,0.6
	c0.3,0.7,0.7,1.4,1.2,1.9c0.5,0.5,0.8,1,1.1,1.6c0,0.1,0.1,0.1,0.1,0.1C26.3,21.6,26.3,21.5,26.3,21.3z M14.1,18.3
	c-0.6-0.7-1.2-1.5-1.9-2.1c-0.3-0.3-0.8-0.5-1.2-0.5c-0.2,0-0.3,0-0.5-0.1c-0.5,0-1-0.1-1.5-0.1c-0.1,0-0.2,0-0.3,0.1v0.1
	c0.2,0.1,0.3,0.1,0.5,0.1c0.4,0.1,0.8,0.1,1.2,0.1c1.1,0.1,2,0.7,2.6,1.6c0.1,0.2,0.3,0.4,0.4,0.6c0.2,0,0.4,0,0.5,0.2l0.3,0.3
	C14.2,18.5,14.2,18.4,14.1,18.3z M9.3,23.1c-0.1-0.7-0.1-1.3-0.1-1.9c0-0.2,0-0.3-0.1-0.5c0-0.1-0.1-0.1-0.1-0.1H9
	c-0.1,0-0.1,0.1-0.1,0.1c0,0.1-0.1,0.2-0.1,0.4c0,0.3,0,0.6,0,0.9c-0.1,0.3-0.1,0.7,0,1c0.1,0.6,0,1.2-0.3,1.7
	c-0.1,0.2-0.2,0.4-0.3,0.6c-0.2,0.2-0.2,0.5,0,0.8h0.1C8.8,25,9.5,24.2,9.3,23.1L9.3,23.1z M20.4,7.8c-0.9-0.9-1.9-1.9-2.8-2.8
	c-0.2-0.1-0.3-0.3-0.5-0.3c-0.1,0-0.2,0-0.3,0c0,0.1,0,0.2,0.1,0.3c0.1,0.1,0.2,0.3,0.3,0.4c0.5,0.3,1,0.7,1.3,1.2
	c0.1,0.2,0.2,0.3,0.4,0.4l2.3,2.6l0.2,0.2l0.1-0.1C21.3,9,20.9,8.3,20.4,7.8z M7.8,27.1c-0.1,0.1-0.2,0.1-0.2,0.2
	c-0.6,0.8-1.4,1.5-2.3,2c-0.9,0.5-1.6,1.2-2.3,2c-0.1,0.2-0.4,0.3-0.5,0.4S2.3,32,2.3,32.1c0.1,0,0.2,0,0.3-0.1
	c0.2-0.1,0.3-0.3,0.5-0.4C3.7,31,4.3,30.4,5,29.9c0.9-0.5,1.7-1.2,2.5-1.8C7.9,27.8,7.9,27.6,7.8,27.1z M12.2,10.1
	C11,9.4,9.7,8.9,8.4,8.8C7.2,8.5,6,8.7,4.9,9.3c-0.1,0-0.2,0.1-0.2,0.2L4.6,9.5l0,0l0.1,0.1l1-0.3c0.4-0.2,0.8-0.3,1.3-0.3
	c1.8-0.1,3.6,0.3,5.2,1.3c0.2,0.1,0.3,0.2,0.5,0.2l0.1-0.1C12.5,10.3,12.4,10.2,12.2,10.1L12.2,10.1z M13.6,6.7
	c-1.4-1.1-3.2-1.5-5-1.3C8.4,5.4,8.2,5.5,8,5.6c-0.1,0-0.1,0.2-0.2,0.3C7.9,5.9,8,6,8.1,6c0.2,0,0.4,0,0.6,0C9.1,5.9,9.6,5.9,10,5.9
	c1.2,0.2,2.4,0.6,3.4,1.2c0.2,0.1,0.4,0.2,0.5,0.2l0.1-0.1C13.9,7,13.8,6.8,13.6,6.7L13.6,6.7z M22.1,14.9c-0.3-0.5-0.6-0.9-0.9-1.4
	c-0.5-0.8-1.1-1.5-1.7-2.1c-0.4-0.4-0.8-0.9-1.2-1.3c-0.1-0.1-0.1-0.2-0.2-0.2c-0.1,0-0.2,0-0.3,0c0,0.1,0,0.3,0,0.3
	c0.2,0.3,0.4,0.6,0.7,0.8c0.5,0.5,1.1,1,1.6,1.5c0.3,0.3,0.5,0.6,0.7,0.9c0.4,0.7,0.9,1.3,1.3,2c0,0,0.1,0.1,0.1,0.1l0.1,0
	C22.3,15.4,22.2,15.1,22.1,14.9L22.1,14.9z M15.1,18.4c-0.3-0.5-0.6-1-0.9-1.5c-0.3-0.5-0.7-1-1.3-1.2c-0.2-0.1-0.4-0.2-0.6-0.4
	c-0.7-0.5-1.5-0.9-2.4-1.2C9.8,14,9.6,14,9.4,14c0,0,0,0.1-0.1,0.1l0.2,0.1l0.1,0.1c0.1,0,0.2,0.1,0.3,0.1c0.3,0.1,0.6,0.2,0.8,0.3
	c0.6,0.4,1.3,0.8,1.8,1.3c0.9,0.6,1.6,1.4,2,2.4c0.1,0.2,0.2,0.3,0.3,0.5c0.1,0.1,0.2,0.2,0.2,0.2l0.1-0.1
	C15.3,18.8,15.2,18.5,15.1,18.4L15.1,18.4z M6.3,10.7c-0.1,0-0.2,0-0.3,0.1c-0.7,0.4-1.4,0.8-2.1,1.3c-0.5,0.5-1,1-1.4,1.6
	c-0.3,0.4-0.6,0.9-1,1.3c-0.4,0.5-0.7,1-0.9,1.6c0,0.1-0.1,0.3,0,0.4h0.1C0.8,17,0.9,16.8,1,16.7l1.4-2.3c0.3-0.6,0.8-1.2,1.4-1.6
	c0.3-0.2,0.6-0.4,0.8-0.7l1.4-1l0.4-0.3C6.3,10.8,6.3,10.8,6.3,10.7z M12.9,21.5c-0.4-0.3-0.7-0.7-0.9-1.2c-0.2-0.6-0.6-1.1-0.9-1.6
	c-0.1-0.1-0.3-0.3-0.5-0.2s0,0.3,0,0.5s0.1,0.1,0.1,0.1c0.3,0.5,0.6,0.9,0.8,1.5c0.3,0.8,0.9,1.4,1.6,1.8v-0.7
	C13,21.7,13,21.6,12.9,21.5z M21.4,7.6c-0.3-0.4-0.6-0.7-0.9-1.1s-0.6-0.7-0.9-1.1S19.1,5,18.9,4.8l-0.7-0.6C18,4,17.7,3.8,17.4,3.5
	c-0.5-0.4-1-0.8-1.5-1.1c-0.2-0.1-0.5-0.2-0.8-0.3c0,0,0,0.1-0.1,0.2c0.2,0.2,0.4,0.4,0.6,0.5c1.4,0.9,2.7,2,3.8,3.3
	c0.5,0.6,1.1,1.2,1.6,1.7C21.2,7.9,21.4,8,21.5,8C21.5,7.9,21.4,7.7,21.4,7.6z M14.1,5.3L14,5.1l-0.1-0.1c-0.2-0.2-0.4-0.2-0.6-0.2
	c-0.3,0-0.5,0-0.8-0.1c-0.1,0-0.2-0.1-0.3-0.1c-0.1,0-0.2-0.1-0.3-0.1l-0.3-0.1c0,0-0.1,0-0.1-0.1h-0.2L11,4.3
	c-0.1,0-0.2-0.1-0.4-0.1c-0.1,0-0.3,0-0.4,0c-0.2,0-0.5,0-0.7,0.1C8.8,4.5,8,4.7,7.1,4.9C6.5,5.1,5.9,5.3,5.3,5.5
	c-0.1,0-0.1,0.2-0.2,0.3c0.1,0,0.2,0.1,0.3,0.1c0.4-0.1,0.9-0.3,1.3-0.4C7.5,5.3,8.3,5,9,4.8c0.6-0.2,1.2-0.2,1.8-0.1
	c0.8,0.3,1.6,0.7,2.5,1.1c0.1,0,0.2,0.1,0.4,0.1l0-0.1c-0.1-0.1-0.1-0.2-0.2-0.3L14.1,5.3z M5,12.7L5,12.7c-0.2,0-0.3,0.1-0.5,0.1
	c-0.2,0.1-0.3,0.2-0.4,0.4c-0.6,0.7-1.2,1.5-1.7,2.2c-0.5,0.8-0.8,1.4-1.3,2.1c-0.5,0.9-0.8,2-0.9,3c0,0.2,0,0.5,0,0.7
	c0.3-0.9,0.6-1.6,0.9-2.4c0.6-1.3,1.4-2.6,2.2-3.8c0.3-0.5,0.7-1,1.1-1.4c0.1-0.1,0.2-0.2,0.3-0.3C4.8,13.1,4.9,13.1,5,13
	C5.1,13,5.1,12.8,5,12.7C5,12.7,5,12.7,5,12.7z M16.3,18.5c-0.2-0.7-0.5-1.3-1-1.8c-0.1-0.1-0.2-0.4-0.3-0.6
	c-0.1-0.2-0.2-0.4-0.4-0.6c-0.2-0.2-0.4-0.3-0.5-0.5c-0.6-0.9-1.4-1.5-2.4-2c-0.5-0.3-1-0.5-1.5-0.7c-0.2-0.1-0.4-0.2-0.6-0.2
	c-0.1,0-0.3,0-0.4,0v0.1c0.1,0.1,0.3,0.2,0.4,0.2c0.9,0.3,1.8,0.7,2.6,1.3c0.8,0.6,1.5,1.4,2.1,2.2c0.9,1.1,1.7,2.5,2.1,3.9
	c0,0.1,0.1,0.3,0.2,0.4c0.1,0.1,0.2,0.2,0.4,0.2C16.7,19.7,16.5,19.1,16.3,18.5z M12.6,27.8c-0.2,0-0.4-0.1-0.6,0
	c-1.2,0.6-2.2,1.3-3.1,2.3c-0.1,0.1-0.1,0.2-0.2,0.4l0.1,0.1l0.4-0.3c0.9-0.6,1.7-1.2,2.6-1.8c0.1-0.1,0.3-0.1,0.5-0.2
	c0,0,0.1,0.1,0.1,0.1c-0.1,0.2-0.3,0.3-0.4,0.4c-0.7,0.5-1.5,1-2.2,1.5c-0.2,0.1-0.4,0.3-0.6,0.5c0.1,0.1,0.3,0.1,0.4,0
	c0.1,0,0.2-0.1,0.2-0.1l0.1-0.1l0.6-0.3c0.2-0.1,0.4-0.2,0.6-0.3c0.6-0.2,1.1-0.6,1.4-1.1c0.2-0.3,0.4-0.5,0.7-0.6v-0.5
	C12.9,27.8,12.8,27.8,12.6,27.8z M12,29.7c-0.8,0.8-1.9,1.3-3,1.5c-0.2,0-0.3,0.1-0.5,0.2l-1.6,1l-1.3,0.8L4.3,34
	C4.2,34,4.1,34.1,4,34.2L4,34.4l1.3-0.3c0,0,0-0.1,0-0.1c0.1-0.1,0.2-0.2,0.3-0.3c0.6-0.4,1.3-0.7,1.9-1s1.5-0.7,2.3-1.1
	s1.4-0.7,2.1-1.1c0.4-0.3,0.9-0.6,1.3-0.9v-0.6C12.7,29.1,12.4,29.4,12,29.7z M6.5,12.6c-0.1,0-0.3,0.1-0.4,0.1c0,0-0.1,0-0.1,0.1
	l-0.4,0.4c-0.2,0.2-0.4,0.4-0.6,0.6c-0.1,0.1-0.2,0.2-0.3,0.3c-0.1,0.1-0.2,0.2-0.3,0.4c-0.1,0.2-0.3,0.4-0.4,0.6
	c-0.1,0.2-0.3,0.4-0.4,0.6s-0.4,0.6-0.6,1l-0.6,1l0,0c-0.5,0.9-0.9,1.9-1.2,2.9C1,20.7,1,21.1,1,21.4l0.2,0c0.1-0.2,0.2-0.3,0.3-0.5
	c0.4-0.9,0.7-1.8,1.1-2.7c0-0.1,0.1-0.3,0.1-0.4c0.1-0.2,0.2-0.4,0.3-0.5c0.5-0.7,1-1.5,1.6-2.2c0.3-0.4,0.6-0.8,0.9-1.2
	c0.4-0.4,0.7-0.7,1.1-1c0.1-0.1,0.1-0.1,0.2-0.2L6.5,12.6z M24.3,24.8c-0.3-0.9-0.5-1.7-0.8-2.5s-0.8-1.5-1.1-2.3
	c-0.3-0.8-0.8-1.6-1.3-2.3c-0.1-0.1-0.1-0.1-0.2-0.2l-0.1,0.1c0,0.2,0.1,0.4,0.2,0.6c0.4,0.7,0.7,1.4,1.1,2.1
	c0.3,0.5,0.5,1.1,0.5,1.6c0,0.4,0.1,0.8,0.2,1.2c0.3,1.1,0.3,2.3,0,3.5l0.3,0.3l0,0l0,0c0,0,0.1-0.3,0.1-0.4
	c0.1-0.4,0.2-0.8,0.2-1.1c0-0.7-0.1-1.3-0.2-1.9c0-0.3-0.1-0.5-0.2-0.8c0.1,0.1,0.2,0.1,0.2,0.3c0.2,0.6,0.5,1.2,0.7,1.9
	c0,0.1,0.1,0.2,0.1,0.3c0.1,0.1,0.1,0.1,0.2,0.1l0,0C24.3,25,24.3,24.9,24.3,24.8z M10.2,27.7C10,27.8,9.9,27.9,9.7,28
	c-0.3,0.3-0.6,0.6-1,0.9s-0.8,0.6-1.2,0.9s-0.9,0.7-1.4,1.1c-0.9,0.7-1.8,1.5-2.7,2.2c-0.1,0.1-0.1,0.3-0.2,0.4c0.1,0,0.3,0,0.4,0
	c0.2-0.1,0.5-0.3,0.7-0.3c1.2-0.4,2.3-1,3.3-1.7c0.2-0.1,0.4-0.3,0.6-0.5c0.1-0.1,0.1-0.2,0.1-0.4c-0.1,0-0.3,0-0.4,0.1
	c-0.8,0.7-1.8,1.2-2.8,1.7c-0.1,0.1-0.3,0.1-0.4,0.2l-0.1-0.2c0.3-0.2,0.6-0.5,0.9-0.6c1.3-0.8,2.6-1.7,3.8-2.8
	c0.3-0.3,0.6-0.6,0.9-0.9c0.1-0.1,0.1-0.2,0.1-0.3S10.3,27.7,10.2,27.7z M16.9,21c0-0.1-0.1-0.2-0.2-0.2l0,0.1l0.3,0.3
	C16.9,21,16.9,21,16.9,21L16.9,21z M12.5,25.3c-0.2,0.1-0.3,0.1-0.5,0.1c-0.4,0-0.7,0.2-1,0.5c-0.2,0.2-0.5,0.4-0.7,0.6
	c-0.4,0.3-0.8,0.6-1.2,0.9c-0.9,0.8-1.8,1.5-2.7,2.3l-0.2,0.2L6,30l0.1,0.1c0.2-0.1,0.3-0.1,0.4-0.2l2.7-2.2c0.4-0.4,0.9-0.7,1.4-1
	c0.8-0.5,1.6-0.9,2.4-1.3V25L12.5,25.3z M24,25.6c0,0.2-0.1,0.3-0.1,0.4c-0.1,0.4-0.3,0.8-0.4,1.2l0.3,0.3c0,0,0-0.1,0-0.1
	c0.1-0.4,0.2-0.7,0.4-1.1C24.3,26.1,24.3,25.8,24,25.6z M25.4,25.3c-0.2-0.8-0.4-1.5-0.8-2.3c-0.3-0.8-0.7-1.5-1-2.3
	c-0.3-1-0.8-1.9-1.4-2.8c-0.3-0.5-0.6-0.9-0.9-1.4c-0.1-0.1-0.2-0.3-0.3-0.4c-0.2,0.2-0.2,0.4-0.2,0.5c0,0.1,0.1,0.1,0.1,0.2
	l0.1,0.1l0.4,0.5c0.1,0.2,0.2,0.4,0.4,0.5c0.2,0.4,0.4,0.7,0.6,1.1c0.3,0.7,0.6,1.5,0.9,2.2s0.8,1.5,1.1,2.3
	c0.2,0.6,0.4,1.1,0.5,1.7c0,0.9-0.2,1.7-0.7,2.4c0,0-0.1,0.1-0.1,0.1l0.3,0.3C25.1,27.4,25.5,26.4,25.4,25.3z M17.8,14.2
	c-0.2-0.2-0.3-0.5-0.5-0.7c-0.6-1-1.3-1.8-2.2-2.5c-1-0.9-2.1-1.6-3.3-2.2c-0.2-0.1-0.3-0.2-0.4-0.3c-0.2-0.3-0.6-0.5-1-0.6
	C9.4,7.6,8.4,7.5,7.5,7.6C6.6,7.8,5.7,8,4.9,8.2C4.7,8.2,4.6,8.3,4.5,8.4c0,0.1,0,0.1,0,0.1c0.1,0,0.2,0.1,0.3,0.1h0.1
	c0.4,0,0.8-0.1,1.1-0.3C6.7,8.1,7.4,8,8.1,8.1c0.9,0,1.8,0.2,2.6,0.7C11.2,9,11.6,9.2,12,9.4c2.2,1.1,4.1,2.8,5.5,4.9
	c0.1,0.1,0.1,0.2,0.2,0.2c0,0,0.1,0,0.3,0.1C17.9,14.4,17.9,14.3,17.8,14.2z M26,17.9v-0.3c-0.2-0.6-0.5-1.2-1-1.6
	c-0.2-0.2-0.4-0.4-0.6-0.7c-0.7-1-1.4-1.9-2.3-2.6c-0.5-0.5-1-0.9-1.5-1.4c-1-1-1.9-2.1-2.9-3.2c-0.1-0.1-0.3-0.2-0.5-0.4
	c0,0.3,0.1,0.6,0.3,0.8c0.5,0.5,1,1.1,1.5,1.6c0.2,0.2,0.4,0.4,0.5,0.6c0.7,0.7,1.3,1.5,1.7,2.3c0.5,0.9,1.1,1.8,1.7,2.7l0,0
	l1.9,2.4c0.1,0.1,0.2,0.2,0.3,0.4c0-0.1,0-0.2,0-0.2l-3.3-5.1c0,0,0.1,0,0.1,0c0.5,0.4,0.9,0.9,1.4,1.4c0.4,0.7,0.9,1.3,1.5,1.9
	c0.2,0.1,0.3,0.3,0.4,0.5C25.5,17.3,25.7,17.6,26,17.9C26,17.9,26,17.9,26,17.9z M12.5,14.6c-0.6-0.5-1.3-1-2-1.3
	c-0.9-0.4-2-0.3-2.8,0.2c-0.3,0.1-0.6,0.4-1,0.5c-1.4,0.7-2.4,1.9-2.7,3.4c0,0.1-0.1,0.2-0.1,0.2c-0.2,0.3-0.3,0.6-0.4,0.9
	c-0.1,0.7-0.2,1.5-0.5,2.2c-0.1,0.4-0.2,0.8-0.2,1.2c0,0.2-0.1,0.4-0.1,0.6c-0.1,0.5-0.3,0.9-0.4,1.4c0,0.2-0.1,0.3-0.1,0.5
	c0,0,0,0.1,0,0.1c0,0.1,0,0.1,0,0.2l0.1,0.1c0-0.1,0.1-0.1,0.1-0.2c0.2-0.4,0.4-0.9,0.6-1.4c0.3-1.2,0.6-2.3,0.8-3.5
	c0.2-1.3,0.7-2.5,1.4-3.5c0.5-0.9,1.3-1.6,2.2-2.1c1.1-0.7,2.4-0.7,3.5-0.1l1.6,1c0.1,0.1,0.2,0.1,0.4,0.2l0.1-0.1
	C12.9,14.9,12.7,14.7,12.5,14.6z M22.5,24.9c-0.4-1.6-0.8-3.3-1.2-4.9c-0.2-0.9-0.6-1.7-0.8-2.5c-0.1-0.7-0.4-1.4-0.7-2
	c-1.2-2-2.6-3.8-4.3-5.3c-0.5-0.4-1-0.8-1.5-1.2c-0.1-0.1-0.3,0-0.4-0.1c0,0.1,0.1,0.3,0.2,0.4c0.6,0.6,1.3,1.1,2,1.7
	c0.2,0.2,0.4,0.3,0.6,0.5c0.5,0.5,1,1,1.4,1.6c0.1,0.2,0.3,0.3,0.4,0.5c0.1,0.2,0.2,0.4,0.3,0.5c0,0.1,0.1,0.2,0.1,0.2l0.2,0.2
	c0.5,0.6,0.9,1.3,1.1,2.1c0.3,1.2,0.7,2.4,1.2,3.5c0.3,0.7,0.5,1.4,0.7,2.2c0.1,0.6,0.2,1.3,0.3,1.9c0.1,0.5,0.1,1,0,1.5v0.1
	l0.3,0.3C22.5,25.7,22.6,25.3,22.5,24.9L22.5,24.9z M12.1,18.5L12.1,18.5c-0.5-0.4-1-0.8-1.5-1.1c-0.5-0.2-1.1-0.1-1.4,0.4
	c-0.2,0.3-0.4,0.6-0.6,0.9C8.3,19.3,8,20.1,8,21c-0.1,1.5-0.5,2.9-1.1,4.2c-0.3,0.6-0.7,1.2-1.1,1.7c-0.2,0.2-0.4,0.5-0.6,0.8
	C5,27.7,4.9,27.9,4.9,28l0.1,0C5.1,28,5.2,28,5.3,27.9c0.2-0.2,0.4-0.4,0.6-0.6c0.5-0.4,0.9-0.9,1.2-1.5c0.5-0.7,0.8-1.5,1-2.3
	c0-0.4,0.1-0.8,0.2-1.3c0.1-0.9,0.3-1.8,0.6-2.6c0.1-0.4,0.2-0.7,0.4-1.1c0.5-0.9,0.6-1.3,1.8-0.4c0.3,0.3,0.6,0.6,0.9,1l1.1,1.3
	v-1.1C12.8,19.1,12.5,18.8,12.1,18.5z M25.8,21.6c-0.3-0.8-0.9-1.4-1.6-1.8c-0.1,0-0.1-0.2-0.2-0.3c-0.3-0.7-0.6-1.4-1-2
	c-0.6-0.9-1.2-1.8-1.8-2.7c-0.5-0.8-1.1-1.6-1.8-2.2c-0.9-0.6-1.7-1.4-2.4-2.2c-0.6-0.7-1.3-1.2-2.1-1.6c-0.1,0-0.2,0-0.3,0
	c0,0.1,0,0.2,0.1,0.3c0.1,0.1,0.2,0.2,0.3,0.2c0.4,0.2,0.8,0.5,1.2,0.8c0.2,0.1,0.3,0.3,0.4,0.4c0.2,0.2,0.4,0.4,0.6,0.6l0.3,0.3
	l0.3,0.3l0.3,0.3l0.3,0.3c0.2,0.3,0.4,0.5,0.6,0.8c0.6,0.8,1.1,1.7,1.6,2.5c0.1,0.1,0.2,0.2,0.3,0.3l0.1-0.1c-0.5-1-1.1-1.9-1.7-2.7
	h0.1l0.1,0.1c0.5,0.3,1,0.7,1.2,1.3c0.3,0.6,0.7,1.1,1,1.7c0.7,1.4,1.9,2.6,2.2,4.2c0,0,0,0.1,0,0.1l1.3,2.8
	c0.1,0.2,0.2,0.3,0.3,0.5h0.1c0-0.1,0.1-0.2,0-0.3c-0.1-0.3-0.2-0.7-0.4-1c-0.2-0.5-0.5-1-0.8-1.5l0.1-0.1c0.2,0.2,0.4,0.4,0.6,0.7
	c0.2,0.3,0.4,0.7,0.6,1c0,0.1,0.2,0.1,0.3,0.2c0-0.1,0.1-0.2,0.1-0.3C25.9,22.1,25.9,21.8,25.8,21.6z M17.9,21.5
	c-0.2-1.3-0.6-2.5-1-3.7c-1.1-2.7-3-4.9-5.6-6.2c-0.7-0.4-1.5-0.7-2.4-0.9c-0.2,0-0.4,0-0.7,0c-0.2,0.1-0.3,0.1-0.5,0.2v0.1
	c0.2,0,0.3,0.1,0.5,0.1c0.9,0,1.8,0.2,2.6,0.6c2.9,1.6,5.1,4.2,6,7.4c0.3,0.7,0.4,1.5,0.5,2.3l0.5,0.5
	C17.9,21.8,17.9,21.7,17.9,21.5z M21.1,21.7c-0.5-1.2-0.9-2.4-1.2-3.7c-0.2-0.9-0.6-1.8-1.1-2.7c-0.1-0.2-0.3-0.5-0.5-0.4
	s0,0.4,0.1,0.6c0.5,0.8,0.9,1.7,1.1,2.6c0.1,0.3,0.1,0.6,0.2,0.9s0.2,0.6,0.3,0.9s0.2,0.6,0.4,0.9s0.3,0.6,0.4,0.9
	c0.4,0.8,0.5,1.7,0.4,2.5c0,0.2-0.1,0.4-0.1,0.6l0.5,0.5C21.7,24.1,21.6,22.8,21.1,21.7z M18.7,20.8c-0.2-0.9-0.5-1.8-0.7-2.7
	c-0.1-0.4-0.3-0.8-0.5-1.2c-0.3-0.6-0.6-1.1-0.9-1.6c-0.2-0.3-0.3-0.5-0.5-0.8c-0.5-0.6-1-1.2-1.6-1.8c-0.6-0.5-1.2-1-1.8-1.5
	c-1.1-0.7-2.2-1.2-3.5-1.5C8.7,9.6,8.1,9.7,7.6,10v0.1c0.2,0,0.4,0.1,0.7,0.1s0.3-0.1,0.5-0.1c1.3,0.1,2.5,0.6,3.5,1.4
	c0.7,0.5,1.4,1.1,2.1,1.7c0.3,0.3,0.6,0.5,0.8,0.9C15.8,15,16.4,16,17,17c0.2,0.3,0.3,0.7,0.3,1c0.1,0.2,0.1,0.5,0.2,0.7
	c0.6,1.1,0.8,2.4,0.8,3.7l0.4,0.4C18.8,22.1,18.8,21.5,18.7,20.8z M19.8,20.6c-0.2-0.4-0.3-0.8-0.5-1.1s-0.2-0.5-0.3-0.7
	c-0.2-0.4-0.4-0.9-0.5-1.3c-0.3-1-0.7-1.8-1.4-2.6c-0.1-0.1-0.2-0.2-0.3-0.3l-0.1,0c0.1,0.2,0.1,0.3,0.2,0.5c0.5,1.1,1,2.2,1.4,3.3
	c0.3,1.1,0.5,2.2,0.6,3.4c0,0.4,0,0.9-0.1,1.3l0.6,0.6c0-0.4,0-0.8,0-1.1s-0.1-1.1-0.1-1.6h0.1c0.1,0.2,0.2,0.4,0.3,0.7
	c0.1,0.7,0.2,1.5,0.3,2.2v0.4l0.4,0.4C20.8,23.2,20.5,21.8,19.8,20.6z M10.1,14.7c-0.3-0.1-0.6-0.2-0.8-0.3
	c-0.5-0.3-1.2-0.2-1.6,0.2c-0.9,0.5-1.4,1.4-2.2,2c-0.1,0-0.1,0.1-0.1,0.2c-0.3,0.5-0.5,1.1-0.7,1.6c-0.3,1.4-0.6,2.7-0.9,4
	c-0.1,0.7-0.2,1.3-0.2,2c0,0.2,0.1,0.4,0.1,0.6c0.2-0.3,0.4-0.5,0.6-0.8c0.4-0.3,0.6-0.8,0.7-1.3c0.3-1.3,0.5-2.6,0.9-4
	c0.2-0.8,0.6-1.5,1.2-2c0.3-0.3,0.7-0.6,1-0.9c0.1-0.1,0.1-0.2,0.1-0.3c-0.1,0-0.2-0.1-0.3-0.1c-0.2,0-0.3,0.1-0.4,0.3
	c-0.3,0.3-0.6,0.6-1,0.9c-0.5,0.5-0.9,1.1-1.1,1.8c-0.1,0.5-0.3,1-0.3,1.5c-0.1,1.1-0.3,2.1-0.6,3.2c-0.1,0.1-0.1,0.3-0.2,0.5H4
	c0,0,0-0.1,0-0.1c0-0.1,0-0.3,0-0.4c0.4-1.4,0.7-2.8,0.9-4.2c0.1-0.8,0.5-1.6,1-2.2c0.6-0.7,1.3-1.4,2-1.9c0.3-0.2,0.7-0.3,1-0.2
	c0.5,0.1,0.9,0.2,1.4,0.3c0.1,0,0.1,0,0.2-0.1c0,0,0-0.1,0-0.1C10.4,14.8,10.2,14.7,10.1,14.7z M12.9,18c-0.7-0.9-1.7-1.5-2.8-1.8
	c-0.7-0.3-1.6-0.2-2.1,0.4c-0.5,0.6-1,1.2-1.4,1.9c-0.4,0.8-0.7,1.7-0.8,2.6c-0.2,1.4-0.7,2.8-1.4,4c-0.2,0.3-0.3,0.5-0.5,0.8
	c0,0.2-0.1,0.3-0.1,0.5h0.1c0.1,0,0.1-0.1,0.2-0.1c0.4-0.5,0.7-1,1.1-1.5c0.5-0.9,0.9-1.9,1-3c0.1-0.9,0.3-1.8,0.8-2.6
	c0.2-0.4,0.4-0.8,0.6-1.1c0.3-0.5,0.6-0.9,1-1.3c0.2-0.3,0.7-0.4,1-0.2c-0.1,0.1-0.2,0.1-0.3,0.2c-0.4,0.3-0.7,0.6-1,0.9
	c-0.3,0.5-0.5,1.1-0.8,1.6c-0.5,0.8-0.7,1.6-0.8,2.5c0,0.2,0,0.3,0,0.5c0,0.2-0.1,0.5,0.1,0.5s0.3-0.3,0.3-0.5
	c0.1-0.5,0.1-1,0.3-1.5c0.2-0.6,0.5-1.2,0.7-1.9c0.3-0.9,0.8-1.6,1.6-2.1c0.3-0.2,0.6-0.3,0.9-0.1c0.9,0.3,1.7,0.9,2.3,1.7
	c0.1,0.1,0.2,0.3,0.3,0.4v-0.3c0-0.1,0-0.2,0.1-0.3L12.9,18z M15.9,19.9c-0.1-0.2-0.1-0.4-0.2-0.6h-0.1c0,0.1,0,0.3-0.1,0.4l0.5,0.4
	L15.9,19.9z M11.5,22.2c0.1,0.2,0.2,0.4,0.4,0.6c0.2,0.3,0.5,0.5,0.9,0.5l0.4,0.1v-0.5l-0.3-0.1c-0.2,0-0.4-0.2-0.6-0.3
	c-0.4-0.5-0.7-1-1.1-1.5s-0.5-0.9-0.8-1.3c-0.3-0.3-0.4-0.8-0.4-1.2c0-0.1-0.1-0.2-0.1-0.3c-0.1,0.1-0.2,0.1-0.3,0.2
	c-0.1,0.3-0.3,0.6-0.4,0.9c-0.2,0.4-0.2,0.9,0.1,1.2c0.1,0.1,0.1,0.2,0.1,0.3c0.1,0.7,0.2,1.3,0.3,2c0.3,1.2-0.2,2.5-1.1,3.2
	c-0.2,0.2-0.3,0.5-0.5,0.8c0,0.1,0,0.2,0.1,0.3c0,0,0.2,0,0.3-0.1C8.6,27,8.7,27,8.8,26.9c0.4-0.5,0.7-1,1.1-1.5
	c0.2-0.3,0.4-0.7,0.4-1.1c0-0.1,0-0.2,0.1-0.3c0.2,0.1,0.3,0.2,0.4,0.3c0.3,0.2,0.3,0.3,0.1,0.6s-0.4,0.6-0.6,0.8l0.1,0.1
	c0.1,0,0.3-0.1,0.4-0.1c0.1-0.1,0.2-0.2,0.3-0.4c0.3-0.3,0.5-0.7,1-0.7c0.4,0,0.7-0.1,1.1-0.2V24c-0.5,0.1-1,0.2-1.6,0.2
	c-0.3,0-0.7-0.1-0.8-0.4c-0.3-0.6-0.6-1.3-0.6-2c-0.1-0.5-0.3-1-0.4-1.5c0-0.2,0-0.3,0-0.5c0.4,0.4,0.7,0.8,0.8,1.4
	c0.1,0.7,0.3,1.4,0.4,2c0.1,0.4,0.5,0.7,1,0.7c0.1,0,0.2,0,0.3-0.1l0.1-0.1c-0.6-0.3-1.1-1-1.1-1.7l0.1-0.1
	C11.2,22,11.4,22.1,11.5,22.2z M15.8,32.7c0.3-0.2,0.5-0.3,0.8-0.5c0.1-0.1,0.3-0.1,0.5-0.1c0.1,0,0.1,0,0.2,0.1
	c0,0.1,0,0.1-0.1,0.2c-0.1,0.1-0.1,0.1-0.2,0.1c-0.5,0.2-1,0.4-1.5,0.7c-0.2,0.1-0.4,0.2-0.6,0.3L15.8,32.7z"/>
<path class="st0" d="M15.9,19.9c-0.1-0.2-0.1-0.4-0.2-0.6h-0.1c0,0.1,0,0.3-0.1,0.4l0.5,0.4L15.9,19.9z M11.5,22.2
	c0.1,0.2,0.2,0.4,0.4,0.6c0.2,0.3,0.5,0.5,0.9,0.5l0.4,0.1v-0.5l-0.3-0.1c-0.2,0-0.4-0.2-0.6-0.3c-0.4-0.5-0.7-1-1.1-1.5
	s-0.5-0.9-0.8-1.3c-0.3-0.3-0.4-0.8-0.4-1.2c0-0.1-0.1-0.2-0.1-0.3c-0.1,0.1-0.2,0.1-0.3,0.2c-0.1,0.3-0.3,0.6-0.4,0.9
	c-0.2,0.4-0.2,0.9,0.1,1.2c0.1,0.1,0.1,0.2,0.1,0.3c0.1,0.7,0.2,1.3,0.3,2c0.3,1.2-0.2,2.5-1.1,3.2c-0.2,0.2-0.3,0.5-0.5,0.8
	c0,0.1,0,0.2,0.1,0.3c0,0,0.2,0,0.3-0.1C8.6,27,8.7,27,8.8,26.9c0.4-0.5,0.7-1,1.1-1.5c0.2-0.3,0.4-0.7,0.4-1.1c0-0.1,0-0.2,0.1-0.3
	c0.2,0.1,0.3,0.2,0.4,0.3c0.3,0.2,0.3,0.3,0.1,0.6s-0.4,0.6-0.6,0.8l0.1,0.1c0.1,0,0.3-0.1,0.4-0.1c0.1-0.1,0.2-0.2,0.3-0.4
	c0.3-0.3,0.5-0.7,1-0.7c0.4,0,0.7-0.1,1.1-0.2V24c-0.5,0.1-1,0.2-1.6,0.2c-0.3,0-0.7-0.1-0.8-0.4c-0.3-0.6-0.6-1.3-0.6-2
	c-0.1-0.5-0.3-1-0.4-1.5c0-0.2,0-0.3,0-0.5c0.4,0.4,0.7,0.8,0.8,1.4c0.1,0.7,0.3,1.4,0.4,2c0.1,0.4,0.5,0.7,1,0.7
	c0.1,0,0.2,0,0.3-0.1l0.1-0.1c-0.6-0.3-1.1-1-1.1-1.7l0.1-0.1C11.2,22,11.4,22.1,11.5,22.2z"/>
<path class="st0" d="M13.2,18.3c-0.1,0.1-0.1,0.2-0.1,0.4V19c-0.1-0.1-0.2-0.3-0.3-0.4c-0.6-0.8-1.4-1.4-2.3-1.7
	c-0.3-0.1-0.6-0.1-0.9,0.1c-0.8,0.5-1.3,1.2-1.6,2.1c-0.2,0.6-0.5,1.2-0.7,1.9c-0.1,0.5-0.2,1-0.3,1.5c0,0.2-0.1,0.5-0.3,0.5
	s-0.2-0.3-0.1-0.5c0-0.2,0-0.3,0-0.5c0-0.9,0.3-1.8,0.8-2.6c0.3-0.5,0.5-1.1,0.8-1.6c0.3-0.3,0.6-0.7,1-0.9c0.1-0.1,0.2-0.1,0.3-0.2
	c-0.3-0.2-0.8-0.1-1,0.2c-0.4,0.4-0.7,0.8-1,1.3c-0.2,0.4-0.4,0.8-0.6,1.1c-0.4,0.8-0.7,1.7-0.8,2.6c-0.1,1.1-0.5,2.1-1,3
	c-0.3,0.5-0.7,1-1.1,1.5c-0.1,0.1-0.1,0.1-0.2,0.1H3.7c0-0.2,0-0.3,0.1-0.5c0.1-0.3,0.3-0.6,0.5-0.8c0.8-1.2,1.3-2.6,1.5-4
	c0.1-0.9,0.4-1.8,0.8-2.6c0.4-0.7,0.8-1.3,1.4-1.9c0.5-0.6,1.4-0.8,2.1-0.4c1.1,0.3,2.1,0.9,2.8,1.8L13.2,18.3z"/>
<path class="st0" d="M3.6,24.9c-0.1-0.2-0.1-0.4-0.1-0.6c0-0.7,0.1-1.3,0.2-2c0.3-1.3,0.5-2.6,0.9-4c0.2-0.6,0.4-1.1,0.7-1.6
	c0-0.1,0.1-0.1,0.1-0.2c0.8-0.6,1.3-1.5,2.2-2c0.5-0.4,1.1-0.4,1.6-0.1c0.3,0.1,0.5,0.2,0.8,0.3c0.2,0.1,0.3,0.1,0.4,0.2V15
	c-0.1,0-0.1,0.1-0.2,0.1c-0.5-0.1-1-0.2-1.4-0.3c-0.3-0.1-0.7-0.1-1,0.2c-0.7,0.6-1.4,1.2-2,1.9c-0.5,0.6-0.9,1.4-1,2.2
	c-0.2,1.5-0.5,2.9-0.9,4.3c0,0.1,0,0.3,0.1,0.5h0.1c0.1-0.1,0.1-0.3,0.2-0.5c0.4-1,0.6-2.1,0.7-3.1c0.1-0.5,0.2-1,0.3-1.5
	c0.2-0.7,0.6-1.3,1.1-1.8c0.3-0.3,0.6-0.6,1-0.9c0.1-0.1,0.3-0.2,0.4-0.2c0.1,0,0.2,0,0.4,0.1c0,0.1-0.1,0.2-0.1,0.3
	c-0.3,0.3-0.7,0.6-1,0.9c-0.6,0.5-1,1.2-1.2,2c-0.3,1.3-0.6,2.6-0.9,4c-0.1,0.5-0.4,0.9-0.8,1.2C4,24.4,3.8,24.6,3.6,24.9z"/>
<path class="st0" d="M20.6,24.5l-0.4-0.4v-0.4c0-0.7-0.1-1.5-0.3-2.2c-0.1-0.2-0.2-0.5-0.3-0.7h-0.1c0,0.5,0.1,1.1,0.1,1.6
	s0,0.8,0,1.1L19.1,23c0.1-0.4,0.1-0.9,0.1-1.3c-0.1-1.1-0.3-2.3-0.6-3.4c-0.4-1.1-0.9-2.2-1.4-3.3c-0.1-0.2-0.1-0.3-0.2-0.5l0.1,0
	c0.1,0.1,0.2,0.2,0.3,0.3c0.6,0.8,1.1,1.7,1.4,2.6c0.1,0.4,0.3,0.9,0.5,1.3c0.1,0.3,0.2,0.5,0.3,0.7s0.3,0.8,0.5,1.1
	C20.5,21.8,20.8,23.1,20.6,24.5z"/>
<path class="st0" d="M18.7,22.8l-0.4-0.4c0.1-1.3-0.2-2.5-0.7-3.7c-0.1-0.2-0.1-0.5-0.2-0.7c-0.1-0.3-0.2-0.7-0.3-1
	c-0.6-1-1.2-1.9-1.8-2.9c-0.2-0.3-0.5-0.6-0.8-0.9c-0.7-0.6-1.4-1.2-2.1-1.7c-1-0.8-2.2-1.3-3.5-1.4c-0.2,0-0.3,0.1-0.5,0.1
	s-0.4,0-0.7-0.1V10c0.5-0.3,1.1-0.4,1.6-0.2c1.2,0.3,2.4,0.8,3.4,1.5c0.6,0.5,1.2,1,1.8,1.5c0.6,0.5,1.1,1.1,1.6,1.8
	c0.2,0.2,0.3,0.5,0.5,0.8c0.3,0.5,0.6,1.1,0.9,1.6c0.2,0.4,0.4,0.8,0.5,1.2c0.3,0.9,0.5,1.8,0.7,2.7C18.8,21.5,18.8,22.1,18.7,22.8z
	"/>
<path class="st0" d="M21.4,25.3l-0.5-0.5c0-0.2,0.1-0.4,0.1-0.6c0.1-0.9,0-1.7-0.4-2.5c-0.1-0.3-0.3-0.6-0.4-0.9S20,20.3,19.9,20
	s-0.2-0.6-0.3-0.9s-0.2-0.6-0.2-0.9c-0.3-0.9-0.7-1.8-1.2-2.6c-0.1-0.2-0.3-0.4-0.1-0.6s0.4,0.2,0.5,0.4c0.5,0.8,0.9,1.7,1.1,2.6
	c0.3,1.3,0.7,2.5,1.2,3.7C21.6,22.8,21.7,24.1,21.4,25.3z"/>
<path class="st0" d="M17.9,22l-0.5-0.5c0-0.8-0.2-1.6-0.5-2.3c-0.9-3.2-3.1-5.8-6-7.4c-0.8-0.4-1.7-0.6-2.6-0.6
	c-0.2,0-0.3,0-0.5-0.1v-0.1c0.2-0.1,0.3-0.2,0.5-0.2c0.2,0,0.4,0,0.7,0c0.8,0.2,1.6,0.4,2.4,0.9c2.6,1.3,4.5,3.5,5.6,6.2
	c0.4,1.2,0.8,2.5,1,3.7C18,21.7,18,21.8,17.9,22z"/>
<path class="st0" d="M24.4,20.6c0.3,0.5,0.5,1,0.7,1.5c0.2,0.3,0.3,0.7,0.4,1c0,0.1,0,0.2,0,0.4h-0.1c-0.1-0.1-0.2-0.3-0.3-0.5
	l-1.3-2.8c0,0,0-0.1,0-0.1c-0.4-1.6-1.5-2.8-2.2-4.2c-0.3-0.6-0.6-1.1-1-1.7c-0.3-0.5-0.7-0.9-1.2-1.2l-0.1-0.1h-0.1
	c0.7,0.8,1.3,1.8,1.7,2.7l-0.1,0.1c-0.1-0.1-0.2-0.2-0.3-0.3c-0.7-1.1-1.4-2.2-2.2-3.3c-0.8-1.2-1.9-2.3-3.2-3.1
	c-0.1,0-0.2-0.1-0.3-0.2c0-0.1-0.1-0.2-0.1-0.3c0.1,0,0.2,0,0.3,0c0.8,0.4,1.5,1,2.1,1.7c0.7,0.8,1.5,1.6,2.3,2.2
	c0.7,0.6,1.4,1.3,1.8,2.2c0.6,0.9,1.2,1.8,1.8,2.7c0.4,0.6,0.7,1.4,1,2c0,0.1,0.1,0.3,0.2,0.3c0.7,0.4,1.3,1.1,1.6,1.8
	c0.1,0.2,0.2,0.3,0.2,0.5c0,0.1-0.1,0.2-0.1,0.3c-0.1,0-0.2-0.1-0.2-0.2c-0.2-0.3-0.4-0.7-0.6-1C24.9,21.1,24.6,20.8,24.4,20.6
	L24.4,20.6z"/>
<path class="st0" d="M13.1,19.5v1.1L12,19.2c-0.3-0.4-0.6-0.7-0.9-1c-1.2-0.9-1.4-0.5-1.8,0.4c-0.2,0.4-0.3,0.7-0.4,1.1
	c-0.3,0.9-0.5,1.7-0.6,2.6c-0.1,0.4-0.1,0.8-0.2,1.3c-0.2,0.8-0.5,1.6-1,2.3c-0.3,0.5-0.7,1-1.2,1.5c-0.2,0.2-0.4,0.4-0.6,0.6
	C5.2,28,5.1,28.1,5,28.1l-0.1,0c0-0.2,0.1-0.3,0.1-0.4c0.2-0.3,0.4-0.5,0.6-0.8c0.5-0.5,0.9-1,1.1-1.7c0.6-1.3,1-2.8,1.1-4.2
	c0.1-0.8,0.3-1.6,0.7-2.4c0.2-0.3,0.4-0.6,0.6-0.9c0.3-0.4,0.9-0.6,1.4-0.4c0.5,0.3,0.9,0.6,1.4,1l0.1,0.1
	C12.5,18.8,12.8,19.1,13.1,19.5z"/>
<path class="st0" d="M22.3,26.1l-0.3-0.3v-0.1c0.1-0.5,0.1-1,0-1.5c-0.1-0.6-0.2-1.3-0.3-1.9c-0.2-0.7-0.4-1.5-0.7-2.2
	c-0.5-1.1-0.9-2.3-1.2-3.5c-0.2-0.8-0.6-1.5-1.1-2.1l-0.2-0.2c-0.1-0.1-0.1-0.1-0.2-0.2c-0.1-0.2-0.2-0.4-0.3-0.5s-0.2-0.3-0.4-0.5
	c-0.4-0.5-0.9-1-1.4-1.6c-0.2-0.2-0.4-0.4-0.6-0.5c-0.6-0.6-1.3-1.1-2-1.7c-0.1-0.1-0.1-0.2-0.2-0.4c0.1,0,0.3,0,0.4,0.1
	c0.5,0.4,1,0.8,1.5,1.2c1.7,1.5,3.2,3.3,4.3,5.3c0.3,0.6,0.6,1.3,0.7,2c0.2,0.9,0.6,1.7,0.8,2.5c0.4,1.6,0.8,3.3,1.2,4.9
	C22.5,25.3,22.4,25.7,22.3,26.1z"/>
<path class="st0" d="M12.9,15.2L12.6,15c-0.5-0.3-1.1-0.7-1.6-1c-1.1-0.7-2.5-0.6-3.5,0.1c-0.9,0.5-1.7,1.2-2.2,2.1
	c-0.7,1-1.2,2.2-1.4,3.5c-0.2,1.2-0.5,2.3-0.8,3.5c-0.2,0.5-0.4,0.9-0.6,1.4c0,0.1-0.1,0.1-0.1,0.2l-0.1-0.1c0-0.1,0-0.2,0-0.3
	c0.2-0.6,0.4-1.3,0.6-1.9c0-0.2,0.1-0.4,0.1-0.6c0-0.4,0.1-0.8,0.2-1.2c0.2-0.7,0.4-1.4,0.5-2.1c0.1-0.3,0.2-0.7,0.4-1
	C4,17.5,4,17.4,4,17.3c0.4-1.5,1.3-2.7,2.7-3.4c0.3-0.2,0.6-0.4,1-0.5c0.9-0.5,1.9-0.5,2.8-0.2c0.7,0.3,1.4,0.8,2,1.3
	C12.7,14.7,12.8,14.9,12.9,15.2L12.9,15.2z"/>
<path class="st0" d="M22,13.1c1.1,1.7,2.2,3.4,3.3,5.1c1.6,2.6,0,0.1,0,0.2c-0.1-0.1-0.2-0.2-0.3-0.4l-1.9-2.4l0,0
	c-0.6-0.9-1.1-1.8-1.7-2.7c-0.5-0.8-1-1.6-1.7-2.3c-0.2-0.2-0.4-0.4-0.5-0.6c-0.5-0.5-1-1.1-1.5-1.6c-0.2-0.2-0.3-0.5-0.3-0.8
	c0.2,0.1,0.3,0.2,0.5,0.4c1,1.1,1.9,2.1,2.9,3.1c0.5,0.5,1,0.9,1.5,1.4c0.9,0.8,1.7,1.7,2.3,2.6c0.2,0.3,0.4,0.5,0.6,0.7
	c0.5,0.4,0.8,1,0.9,1.6c0,0.1,0,0.2,0,0.3c0,0.1,0,0.1,0,0.2c-0.2-0.4-0.4-0.7-0.6-1c-0.1-0.2-0.2-0.3-0.4-0.5
	c-0.6-0.6-1.1-1.2-1.6-1.9c-0.4-0.5-0.9-1-1.3-1.4C22,13.2,22,13.2,22,13.1z"/>
<path class="st0" d="M4.5,8.3c0.1-0.1,0.3-0.2,0.4-0.2c0.9-0.2,1.7-0.4,2.6-0.6c1-0.1,1.9,0,2.9,0.3c0.4,0,0.8,0.2,1,0.6
	c0.1,0.1,0.3,0.3,0.4,0.3c1.2,0.6,2.3,1.3,3.3,2.2c0.9,0.7,1.6,1.6,2.2,2.5c0.1,0.3,0.3,0.5,0.5,0.7c0.1,0.1,0.2,0.3,0.2,0.4
	c-0.1,0-0.2,0-0.3-0.1c-0.1-0.1-0.2-0.1-0.2-0.2c-1.4-2-3.3-3.7-5.5-4.8c-0.4-0.2-0.8-0.4-1.2-0.7C10,8.3,9.1,8.1,8.2,8.1
	C7.4,8,6.7,8.1,6,8.3C5.6,8.4,5.3,8.5,4.9,8.5c-0.1,0-0.3,0-0.4-0.1L4.5,8.3z"/>
<path class="st0" d="M24.2,26.3c-0.1,0.4-0.2,0.7-0.4,1.1c0,0,0,0.1,0,0.1l-0.3-0.3c0.1-0.4,0.3-0.8,0.4-1.2c0-0.1,0.1-0.3,0.1-0.4
	C24.3,25.8,24.3,26.1,24.2,26.3z"/>
<path class="st0" d="M24.3,28L24,27.7c0,0,0.1-0.1,0.1-0.1c0.5-0.7,0.8-1.5,0.7-2.4c-0.1-0.6-0.3-1.2-0.5-1.7
	c-0.3-0.8-0.7-1.5-1.1-2.3s-0.6-1.5-0.9-2.2c-0.2-0.4-0.3-0.8-0.6-1.1c-0.1-0.2-0.2-0.4-0.4-0.5L21.2,17c0,0-0.1-0.1-0.1-0.1
	l-0.1-0.1c0,0-0.1-0.1-0.1-0.2c0-0.1,0-0.3,0.2-0.5c0.1,0.1,0.2,0.3,0.3,0.4c0.3,0.5,0.6,0.9,0.9,1.4c0.6,0.8,1.1,1.8,1.4,2.8
	c0.3,0.8,0.7,1.5,1,2.3c0.3,0.8,0.5,1.5,0.7,2.3C25.5,26.4,25.1,27.4,24.3,28z"/>
<path class="st0" d="M12.5,25.3l0.6-0.2v0.4c-0.8,0.4-1.6,0.8-2.4,1.3c-0.5,0.3-0.9,0.6-1.4,1l-2.7,2.2c-0.1,0.1-0.3,0.2-0.4,0.2
	L6.1,30l0.2-0.2l0.2-0.2c0.9-0.8,1.8-1.5,2.7-2.3c0.4-0.3,0.8-0.6,1.2-0.9c0.2-0.2,0.5-0.4,0.7-0.6c0.3-0.3,0.6-0.4,1-0.5
	C12.2,25.4,12.4,25.3,12.5,25.3z"/>
<path class="st0" d="M16.9,21.1l-0.3-0.3l0-0.1c0.1,0.1,0.2,0.1,0.2,0.2C16.9,21,16.9,21,16.9,21.1z"/>
<path class="st0" d="M4.9,32.4c0.2,0,0.3-0.1,0.4-0.1c1-0.4,1.9-1,2.8-1.6c0.1-0.1,0.2,0,0.4-0.1c0,0.1,0,0.3-0.1,0.4
	c-0.2,0.2-0.4,0.3-0.6,0.5c-1,0.7-2.2,1.3-3.3,1.7c-0.3,0.1-0.5,0.3-0.7,0.3c-0.1,0-0.3,0-0.4,0c0-0.1,0.1-0.3,0.2-0.4
	c0.9-0.8,1.8-1.5,2.7-2.3c0.5-0.4,0.9-0.8,1.4-1.1c0.5-0.3,0.8-0.6,1.2-0.9s0.7-0.6,1-0.9c0.1-0.1,0.3-0.3,0.5-0.4
	c0.1,0,0.2,0,0.3,0.1s0,0.2-0.1,0.3c-0.3,0.3-0.6,0.6-0.9,0.9c-1.2,1-2.4,1.9-3.8,2.8c-0.3,0.2-0.6,0.4-0.9,0.6L4.9,32.4z"/>
<path class="st0" d="M24.3,25.1c-0.1,0-0.2-0.1-0.2-0.1c-0.1-0.1-0.1-0.2-0.1-0.3c-0.2-0.6-0.5-1.2-0.7-1.9c0-0.1-0.1-0.2-0.2-0.3
	c0.1,0.3,0.1,0.5,0.2,0.8c0.2,0.6,0.2,1.2,0.3,1.9c0,0.4-0.1,0.8-0.2,1.1c0,0.1-0.1,0.3-0.1,0.4s0,0,0,0l0,0l-0.3-0.3
	c0.3-1.1,0.3-2.3,0-3.5c-0.1-0.4-0.1-0.8-0.2-1.2c-0.1-0.6-0.2-1.1-0.5-1.6c-0.4-0.7-0.7-1.4-1.1-2.1c-0.1-0.2-0.1-0.4-0.2-0.6
	l0.1-0.1c0.1,0.1,0.2,0.1,0.2,0.2c0.6,0.7,1,1.4,1.3,2.3c0.3,0.8,0.8,1.5,1.1,2.3s0.6,1.7,0.8,2.5C24.3,24.8,24.3,25,24.3,25.1z"/>
<path class="st0" d="M6.6,12.7c0,0.1-0.1,0.2-0.2,0.2c-0.4,0.4-0.8,0.7-1.1,1c-0.3,0.4-0.6,0.8-0.9,1.2c-0.5,0.7-1.1,1.5-1.6,2.2
	c-0.1,0.2-0.2,0.4-0.3,0.5c-0.1,0.1-0.1,0.3-0.1,0.4c-0.3,0.9-0.7,1.8-1,2.7c-0.1,0.2-0.2,0.3-0.3,0.5l-0.2,0c0-0.4,0.1-0.7,0.1-1.1
	c0.3-1,0.7-2,1.2-2.9l0,0c0.7-1,1.3-2.1,2.1-3.1c0.5-0.6,1-1.1,1.6-1.6c0.2-0.1,0.4-0.2,0.5-0.2L6.6,12.7z"/>
<path class="st0" d="M13.1,28.8v0.6c-0.4,0.3-0.8,0.6-1.3,0.9c-0.7,0.4-1.4,0.8-2.1,1.1s-1.5,0.7-2.3,1.1s-1.3,0.7-1.9,1
	c-0.1,0.1-0.2,0.2-0.3,0.3c0,0,0,0.1,0,0.1L4,34.3L4,34.2c0.1-0.1,0.2-0.2,0.3-0.3l1.4-0.8L7,32.3l1.6-1c0.1-0.1,0.3-0.2,0.5-0.2
	c1.1-0.2,2.2-0.7,3-1.5C12.3,29.3,12.7,29.1,13.1,28.8z"/>
<path class="st0" d="M13.1,27.8v0.6c-0.3,0.2-0.5,0.4-0.7,0.6c-0.4,0.5-0.9,0.8-1.4,1.1c-0.2,0.1-0.4,0.2-0.6,0.3l-0.6,0.3l-0.1,0.1
	c-0.1,0.1-0.1,0.1-0.2,0.1c-0.1,0.1-0.3,0.1-0.4,0c0.3-0.2,0.4-0.3,0.6-0.5c0.7-0.5,1.5-1,2.2-1.5c0.2-0.1,0.3-0.3,0.4-0.4
	c0,0,0-0.1-0.1-0.1c-0.2,0-0.3,0.1-0.5,0.2c-0.9,0.6-1.7,1.2-2.6,1.8l-0.4,0.3l-0.1-0.1c0-0.1,0.1-0.3,0.2-0.4
	c0.9-0.9,2-1.7,3.1-2.3c0.1-0.1,0.4,0,0.6,0S12.9,27.8,13.1,27.8z"/>
<path class="st0" d="M16.9,20.4c-0.2-0.1-0.3-0.1-0.4-0.2c-0.1-0.1-0.2-0.3-0.2-0.4c-0.4-1.4-1.2-2.7-2.1-3.9
	c-0.6-0.8-1.3-1.6-2.1-2.2c-0.8-0.6-1.6-1-2.6-1.3c-0.2-0.1-0.3-0.1-0.4-0.2V12c0.1,0,0.3,0,0.4,0c0.2,0.1,0.4,0.2,0.6,0.3
	c0.5,0.2,1,0.4,1.5,0.7c0.9,0.5,1.8,1.2,2.4,2c0.1,0.2,0.4,0.3,0.5,0.5c0.1,0.2,0.3,0.4,0.4,0.6c0.1,0.2,0.1,0.4,0.3,0.6
	c0.5,0.5,0.8,1.1,1,1.8C16.5,19.1,16.7,19.7,16.9,20.4z"/>
<path class="st0" d="M0.2,21.2c0-0.2,0-0.5,0-0.7c0.1-1,0.4-2.1,0.9-3c0.4-0.7,0.8-1.4,1.3-2.1c0.5-0.7,1.1-1.5,1.7-2.2
	c0.1-0.1,0.2-0.3,0.4-0.4C4.6,12.7,5,12.6,5,12.7c0.2,0.2-0.1,0.3-0.2,0.5c-0.1,0.1-0.2,0.2-0.4,0.4c-0.4,0.4-0.8,0.9-1.1,1.4
	c-0.8,1.2-1.6,2.5-2.2,3.8C0.8,19.5,0.5,20.3,0.2,21.2z"/>
<path class="st0" d="M14.1,5.3l-0.7,0.2l0.2,0.3l0,0.1c-0.1,0-0.3,0-0.4-0.1c-0.8-0.4-1.6-0.7-2.5-1.1C10.2,4.5,9.6,4.5,9,4.7
	C8.2,4.9,7.5,5.2,6.8,5.4C6.3,5.5,5.9,5.7,5.5,5.8c-0.1,0-0.2-0.1-0.3-0.1c0.1-0.1,0.1-0.2,0.2-0.3C5.9,5.2,6.5,5,7.1,4.8
	c0.8-0.2,1.6-0.4,2.5-0.6c0.8-0.2,1.6,0,2.3,0.3c0.4,0.2,0.9,0.3,1.4,0.3C13.6,4.8,13.9,5,14.1,5.3z"/>
<path class="st0" d="M15.2,2.2c0.3,0.1,0.5,0.2,0.8,0.3c0.5,0.3,1,0.7,1.5,1.1C17.7,3.7,18,4,18.2,4.2c0.4,0.4,0.9,0.8,1.3,1.2
	c0.6,0.7,1.3,1.4,1.9,2.2c0.1,0.1,0.1,0.3,0.2,0.4c-0.1,0-0.3-0.1-0.4-0.2c-0.5-0.6-1.1-1.1-1.6-1.7c-1.1-1.3-2.4-2.4-3.8-3.3
	c-0.2-0.1-0.4-0.3-0.6-0.5L15.2,2.2z"/>
<path class="st0" d="M13.1,21.7v0.7c-0.8-0.3-1.4-1-1.6-1.8c-0.2-0.5-0.5-1-0.8-1.5c0,0-0.1-0.1-0.1-0.1s-0.1-0.4,0-0.5
	s0.3,0,0.5,0.2c0.4,0.5,0.7,1,0.9,1.6c0.2,0.4,0.6,0.8,0.9,1.2C12.9,21.6,13,21.7,13.1,21.7z"/>
<path class="st0" d="M6.4,10.9L6,11.2c-0.5,0.3-0.9,0.7-1.4,1c-0.3,0.2-0.5,0.5-0.8,0.7c-0.6,0.4-1.1,1-1.4,1.6
	C1.9,15.2,1.5,16,1,16.7c-0.1,0.1-0.2,0.3-0.3,0.4H0.6c0-0.1,0-0.3,0-0.4c0.2-0.6,0.5-1.2,0.9-1.6c0.4-0.4,0.6-0.9,1-1.3
	c0.4-0.6,0.9-1.1,1.4-1.6c0.7-0.5,1.4-0.9,2.1-1.3C6.1,10.8,6.2,10.8,6.4,10.9L6.4,10.9z"/>
<path class="st0" d="M15.2,19C15.1,19,15,18.9,15,18.8c-0.1-0.1-0.2-0.3-0.3-0.5c-0.4-1-1.1-1.8-2-2.4c-0.6-0.5-1.2-0.9-1.8-1.3
	c-0.4-0.2-0.7-0.3-1.1-0.4c-0.1,0-0.2-0.1-0.4-0.2l0.1-0.1c0.2,0,0.4,0,0.6,0.1c0.8,0.3,1.6,0.7,2.4,1.2c0.2,0.2,0.4,0.3,0.6,0.4
	c0.5,0.3,1,0.7,1.2,1.2c0.3,0.5,0.6,1,0.9,1.5C15.2,18.5,15.3,18.7,15.2,19L15.2,19z"/>
<path class="st0" d="M22.2,15.6c0,0-0.1-0.1-0.1-0.1c-0.4-0.7-0.8-1.3-1.3-2c-0.2-0.3-0.5-0.6-0.7-0.9c-0.5-0.5-1.1-1-1.6-1.5
	c-0.3-0.3-0.5-0.5-0.7-0.8c-0.1-0.1,0-0.2,0-0.3c0.1,0,0.2,0,0.3,0c0.1,0,0.1,0.1,0.2,0.2c0.4,0.4,0.8,0.9,1.2,1.3
	c0.7,0.6,1.2,1.3,1.7,2.1c0.3,0.5,0.6,0.9,0.9,1.4C22.2,15.1,22.2,15.3,22.2,15.6L22.2,15.6z"/>
<path class="st0" d="M14,7.3c-0.2-0.1-0.4-0.1-0.5-0.2C12.4,6.4,11.2,6,10,5.8c-0.4,0-0.9,0-1.3,0.1c-0.2,0-0.4,0-0.6,0
	C8,5.9,7.9,5.8,7.8,5.8C7.8,5.7,7.9,5.5,8,5.5c0.2-0.1,0.4-0.1,0.6-0.2c1.8-0.2,3.6,0.2,5,1.3c0.2,0.1,0.3,0.3,0.5,0.4L14,7.3z"/>
<path class="st0" d="M4.6,9.5c0.1-0.1,0.2-0.2,0.3-0.3C6,8.7,7.2,8.5,8.4,8.7c1.4,0.2,2.7,0.6,3.8,1.3c0.2,0.1,0.3,0.3,0.5,0.4
	l-0.1,0.1c-0.2-0.1-0.3-0.1-0.5-0.2c-1.6-1-3.4-1.4-5.3-1.3C6.5,9.1,6,9.2,5.6,9.3L4.7,9.6L4.6,9.5z"/>
<path class="st0" d="M7.7,27.1c0.2,0.5,0.1,0.7-0.2,1c-0.8,0.6-1.6,1.3-2.5,1.9c-0.7,0.5-1.3,1-1.9,1.6C3,31.7,2.8,31.9,2.7,32
	c-0.1,0.1-0.2,0-0.3,0.1c0-0.1,0-0.3,0.1-0.4s0.4-0.3,0.5-0.4c0.7-0.8,1.4-1.4,2.3-2c0.9-0.5,1.7-1.2,2.3-2
	C7.6,27.2,7.7,27.2,7.7,27.1z"/>
<path class="st0" d="M21.5,9.7l-0.3-0.2c-0.8-0.9-1.5-1.7-2.3-2.6c-0.1-0.1-0.3-0.3-0.4-0.4c-0.3-0.5-0.8-0.9-1.3-1.2
	c-0.1-0.1-0.3-0.2-0.4-0.3c-0.1-0.1-0.1-0.2-0.1-0.3c0.1,0,0.3-0.1,0.3,0c0.2,0.1,0.4,0.2,0.5,0.3c0.9,0.9,1.9,1.8,2.8,2.8
	C20.9,8.4,21.3,9,21.5,9.7L21.5,9.7z"/>
<path class="st0" d="M8.2,25.9c-0.2-0.2-0.2-0.5,0-0.8c0.1-0.2,0.2-0.4,0.3-0.6c0.3-0.5,0.4-1.1,0.3-1.7c-0.1-0.3-0.1-0.7,0-1
	c0-0.3,0-0.6,0-0.9c0-0.1,0-0.2,0.1-0.4c0-0.1,0.1-0.1,0.2-0.1c0,0,0.1,0.1,0.1,0.2c0,0.2,0.1,0.3,0.1,0.5c0,0.6,0,1.3,0.1,1.9
	c0.2,1.2-0.5,2-1.1,2.9C8.2,25.9,8.2,25.9,8.2,25.9z"/>
<path class="st0" d="M14.2,18.6L14,18.3c-0.1-0.2-0.3-0.2-0.5-0.2c-0.2-0.2-0.3-0.4-0.4-0.6c-0.6-0.9-1.5-1.5-2.6-1.6
	c-0.4-0.1-0.8-0.1-1.2-0.1c-0.2,0-0.3-0.1-0.5-0.1v-0.1c0.1,0,0.2-0.1,0.3-0.1c0.5,0,1,0.1,1.5,0.1c0.2,0,0.3,0.1,0.5,0.1
	c0.5,0,0.9,0.2,1.2,0.5c0.7,0.7,1.3,1.4,1.9,2.1C14.1,18.4,14.2,18.5,14.2,18.6z"/>
<path class="st0" d="M22.7,16.1c0.1,0.1,0.4,0.2,0.5,0.3c0.6,0.8,1.1,1.7,1.7,2.5c0.2,0.3,0.4,0.6,0.6,0.9c0.4,0.4,0.7,0.9,0.8,1.5
	c0,0.1,0,0.3,0,0.4c0,0-0.1-0.1-0.1-0.1c-0.2-0.6-0.6-1.2-1.1-1.6c-0.5-0.5-1-1.2-1.2-1.9c-0.1-0.2-0.2-0.4-0.4-0.6
	c-0.3-0.4-0.6-0.8-0.9-1.2L22.7,16.1z"/>
<path class="st0" d="M13.1,30.1v0.5c-0.2,0.2-0.5,0.3-0.7,0.5c-0.2,0.2-0.5,0.3-0.7,0.5c-0.5,0.5-1.2,0.9-1.9,1.1
	c-0.4,0.1-0.9,0.2-1.3,0.3c0.1-0.4,0.4-0.5,0.6-0.6c0.5-0.2,1.1-0.4,1.6-0.6c0.4-0.1,0.8-0.4,1-0.8c0.1-0.1,0.1-0.1,0.2-0.2
	L13.1,30.1z"/>
<path class="st0" d="M18.2,7.2c0.6,0.5,1.2,1,1.7,1.6c0.2,0.3,0.5,0.6,0.8,0.9c0.5,0.6,1,1.2,1.5,1.8c0.1,0.1,0.1,0.2,0.1,0.4
	L22.2,12l-0.3-0.3c-0.3-0.3-0.6-0.6-0.8-0.9s-0.4-0.5-0.6-0.7c-0.2-0.2-0.3-0.5-0.5-0.7c-0.5-0.4-0.9-0.8-1.4-1.2
	C18.4,7.9,18.2,7.6,18.2,7.2L18.2,7.2z"/>
<path class="st0" d="M1.7,13.2c0-0.1,0.1-0.2,0.1-0.3c0.5-0.8,1.2-1.5,2.1-2c0.2-0.1,0.3-0.2,0.5-0.4C4.7,10.2,5.2,10,5.7,10
	c0.1,0,0.2,0,0.3,0.1C6,10.2,6,10.2,5.9,10.2c-0.6,0.3-1.1,0.7-1.7,1C3.6,11.6,3,12,2.6,12.6c-0.2,0.2-0.3,0.4-0.5,0.5
	C1.9,13.1,1.8,13.2,1.7,13.2L1.7,13.2z"/>
<path class="st0" d="M4.3,27.4c0.1-0.2,0.1-0.3,0.2-0.5c0.5-0.7,1-1.4,1.4-2C6,24.8,6,24.7,6.1,24.5l-0.5,0l0.3-0.4
	c0.1-0.2,0.3-0.4,0.4-0.5c0.1-0.1,0.2-0.2,0.3-0.2c0.1,0.1,0.2,0.3,0.2,0.4c-0.3,0.9-0.8,1.8-1.3,2.5c-0.3,0.3-0.5,0.6-0.8,0.9
	c-0.1,0.1-0.2,0.2-0.3,0.3L4.3,27.4z"/>
<path class="st0" d="M25.1,30c-0.2,0.4-0.5,0.7-0.9,0.9l-2.8,1.4l-0.2,0.1L21.1,32c0.6-0.4,1.2-0.8,1.8-1.1c0.3-0.1,0.6-0.2,0.9-0.3
	c0.2-0.1,0.4-0.2,0.6-0.3c0.2-0.1,0.4-0.3,0.6-0.4L25.1,30z"/>
<path class="st0" d="M21.6,29.9l-1.2,0.8l-0.2-0.5l0.3-0.2L21.6,29.9z"/>
<path class="st0" d="M4.5,5.1c0.1-0.3,0.4-0.6,0.7-0.6C5.7,4.3,6.1,4.1,6.6,4c0.9-0.3,1.7-0.5,2.6-0.7c0.1,0,0.2,0,0.2,0
	c0.1,0,0.1,0.1,0.2,0.2c0,0,0,0.2-0.1,0.2C9.2,3.7,9,3.8,8.8,3.9L5.1,5C4.9,5,4.7,5.1,4.5,5.1z"/>
<path class="st0" d="M1.7,21.6c0-0.1,0-0.2,0-0.2c0.3-1,0.6-1.9,0.9-2.9C2.7,18.3,2.8,18.1,3,18c0.1,0,0.2,0,0.2,0
	c0,0,0.1,0.1,0,0.2c-0.3,1-0.7,2.1-1,3.1c0,0.1-0.1,0.2-0.1,0.3c-0.1,0.1-0.2,0.1-0.3,0.2L1.7,21.6z"/>
<path class="st0" d="M22.7,29.8l1.1-0.1l-0.3,0.2C23.2,30.1,22.9,30,22.7,29.8z"/>
<path class="st0" d="M26,27.4c-0.2,0.4-0.4,0.9-0.6,1.3l-0.1,0.2l-0.1-0.1c0-0.1-0.1-0.1-0.2-0.2L25,28.6c0.2-0.2,0.3-0.4,0.4-0.7
	c0.1-0.3,0.2-0.6,0.4-0.9c0.1-0.1,0.2-0.3,0.3-0.4C26.1,26.9,26.2,27.2,26,27.4z"/>
<path class="st0" d="M6.5,35l0.8-0.2c1-0.3,1.9-0.8,2.7-1.6c0.1-0.2,0.3-0.3,0.5-0.1s0,0.4-0.1,0.5c-0.9,0.5-1.8,1-2.7,1.5
	C7.2,35.2,6.8,35.2,6.5,35L6.5,35z"/>
<path class="st0" d="M17.3,31.3l-0.2,0.1L17.3,31.3L17.3,31.3z"/>
<path class="st0" d="M1.5,30.6c0-0.2,0.1-0.4,0.2-0.5c0.2-0.2,0.3-0.4,0.5-0.6c0.2-0.2,0.3-0.4,0.5-0.6c0.1-0.1,0.2-0.3,0.3-0.4
	c0.2-0.2,0.5-0.4,0.7-0.6c0.1-0.1,0.2-0.1,0.3-0.1c0,0.1,0,0.3,0,0.4c-0.2,0.3-0.5,0.6-0.7,0.9c-0.5,0.5-1,1-1.5,1.5
	c-0.1,0.1-0.2,0.1-0.3,0.2L1.5,30.6z"/>
<path class="st0" d="M3.9,9.8l-0.2,0.6c0,0-0.1,0.1-0.1,0.1c-0.9,0.7-1.8,1.5-2.6,2.4c0,0-0.1,0-0.1,0.1C0.9,12.3,3.1,9.9,3.9,9.8z"
	/>
<path class="st0" d="M24,31.9c0,0.1-0.1,0.2-0.1,0.2c-0.7,0.4-1.3,1.1-2.1,1.3h0c-0.1-0.1-0.1-0.3-0.2-0.4l2.3-1.3
	c0.1,0,0.2,0,0.2,0C24,31.7,24,31.8,24,31.9z"/>
<path class="st0" d="M25.4,15.7c-0.1,0-0.1-0.1-0.2-0.2l-2-2.5c-0.2-0.2-0.4-0.5-0.6-0.7c0-0.1-0.1-0.1-0.1-0.2c0.1,0,0.2,0,0.3,0
	c0.1,0,0.2,0.1,0.3,0.2c0.8,1,1.5,1.9,2.3,2.9C25.4,15.4,25.5,15.5,25.4,15.7L25.4,15.7z"/>
<path class="st0" d="M9.8,6.8c-0.2,0-0.4,0.1-0.6,0.1c-0.4,0-0.8,0-1.1,0C7.6,7,7.2,7,6.7,7.2c-0.5,0.1-1,0.3-1.5,0.5
	c-0.1,0-0.2,0-0.3,0V7.5c0.1-0.1,0.3-0.2,0.4-0.3c1.3-0.6,2.7-0.8,4.2-0.7c0.1,0,0.2,0,0.3,0.1L9.8,6.8z"/>
<path class="st0" d="M22.2,30.4c-0.1,0.1-0.1,0.2-0.3,0.3l-1.2,0.7c0-0.1-0.1-0.2-0.1-0.3l0.2-0.1c0.3-0.2,0.6-0.5,0.9-0.6
	C21.8,30.3,22,30.4,22.2,30.4z"/>
<path class="st0" d="M3.4,25.3c0,0.1,0,0.2-0.1,0.3c-0.3,0.4-0.5,0.8-0.8,1.2S2,27.5,1.7,27.9c-0.1,0.2-0.3,0.3-0.4,0.4
	c-0.1,0-0.1,0-0.2,0c0-0.1,0-0.1,0-0.2c0-0.1,0-0.1,0.1-0.2c0.4-0.5,0.8-1.1,1-1.7c0.2-0.4,0.5-0.8,0.7-1.2c0.1-0.1,0.1-0.1,0.2-0.1
	C3.3,25.1,3.4,25.2,3.4,25.3z"/>
<path class="st0" d="M13.1,10.7c1,0.1,3.3,2.5,3.4,3.4c-0.5-0.5-1.1-1.1-1.7-1.7S13.6,11.4,13.1,10.7L13.1,10.7z"/>
<path class="st0" d="M5.6,30.1c0,0.2,0,0.3-0.1,0.5c-0.1,0.2-0.2,0.3-0.4,0.4c-0.6,0.5-1.2,1-1.8,1.4c-0.2,0.1-0.4,0.2-0.6,0.2
	c-0.1-0.3,0.2-0.3,0.4-0.5c0.4-0.3,0.8-0.7,1.2-1S5.1,30.5,5.6,30.1z"/>
<path class="st0" d="M10.6,6.7l0.6,0.2c0.6,0.2,1.2,0.4,1.8,0.7c0.3,0.1,0.5,0.3,0.8,0.6c0.1,0.1,0.1,0.2,0.1,0.3
	c-0.1,0-0.2,0-0.3-0.1c-0.1,0-0.1,0-0.1-0.1c-0.7-0.6-1.6-1-2.5-1.1c-0.2,0-0.3-0.1-0.4-0.1c-0.1,0-0.1-0.2-0.2-0.2L10.6,6.7z"/>
<path class="st0" d="M2.1,31.3c0-0.2,0.1-0.3,0.2-0.5c0.2-0.3,0.5-0.6,0.8-0.9c0.4-0.4,0.8-0.8,1.2-1.2c0,0,0.1-0.1,0.1-0.1l0.4-0.1
	c0,0.1,0,0.3-0.1,0.4c-0.1,0.1-0.2,0.3-0.4,0.4c-0.7,0.6-1.3,1.3-1.9,2c0,0.1-0.1,0.1-0.2,0.2L2.1,31.3z"/>
<path class="st0" d="M15.8,32.7c0.3-0.2,0.5-0.3,0.8-0.5c0.1-0.1,0.3-0.1,0.5-0.1c0.1,0,0.1,0,0.2,0.1c0,0.1,0,0.1-0.1,0.2
	c-0.1,0.1-0.1,0.1-0.2,0.1c-0.5,0.2-1,0.4-1.5,0.7c-0.2,0.1-0.4,0.2-0.6,0.3L15.8,32.7z"/>
<path class="st0" d="M12.9,35.8c0.1-0.1,0.3-0.2,0.5-0.3l2-0.9c0.1,0,0.2-0.1,0.3-0.1c0.1,0,0.2,0.1,0.2,0.2c0,0.1,0,0.1-0.1,0.2
	c-0.8,0.5-1.8,0.9-2.8,1c0,0-0.1,0-0.1,0L12.9,35.8z"/>
<path class="st0" d="M17.4,9.6c-0.1,0-0.1,0-0.2,0c-0.9-0.6-1.8-1.2-2.7-1.8c-0.1-0.1-0.1-0.2-0.1-0.3C14.9,7.4,17.2,9,17.4,9.6z"/>
<path class="st0" d="M9.6,34.8c0-0.3,0.3-0.6,0.5-0.7c0.7-0.4,1.4-0.9,2.1-1.3c0.1-0.1,0.4-0.1,0.4,0s0,0.3-0.2,0.4
	c-0.2,0.1-0.3,0.2-0.5,0.3L9.6,34.8z"/>
<path class="st0" d="M16.1,0.9c-0.2,0-0.4-0.1-0.6-0.1c-0.6-0.3-1.3-0.4-2-0.4c-0.4,0-0.9-0.1-1.3-0.2C13-0.3,15.7,0.2,16.1,0.9z"/>
<path class="st0" d="M16.1,36.6l0.6-0.3l1.3-0.4c0.2-0.1,0.4-0.1,0.5-0.2s0.2,0,0.2,0.1c0,0.1,0,0.2-0.1,0.3
	c-0.1,0.1-0.2,0.2-0.4,0.3c-0.6,0.2-1.3,0.3-1.9,0.5c-0.1,0-0.2,0-0.3,0L16.1,36.6z"/>
<path class="st0" d="M16.7,8.3c-0.1,0-0.1-0.1-0.2-0.1C16,7.8,15.6,7.4,15.1,7c-0.2-0.2-0.5-0.3-0.7-0.5c-0.1-0.1-0.1-0.2-0.2-0.3
	c0.1,0,0.3-0.1,0.3,0c0.3,0.2,0.7,0.4,1,0.7c0.3,0.2,0.6,0.5,0.9,0.8C16.6,7.9,16.7,8.1,16.7,8.3L16.7,8.3z"/>
<path class="st0" d="M13.2,26.7c0,0.1-0.1,0.1-0.1,0.2l0,0l-1,0.3l-1,0.3h-0.1H11l-0.2-0.1c0.1-0.1,0.2-0.2,0.3-0.3
	c0.3-0.1,0.5-0.3,0.8-0.4c0.3-0.1,0.6-0.2,0.9-0.3c0,0,0,0,0,0.1c0.1,0,0.1,0,0.2,0c0,0,0.1,0,0.1,0.1
	C13.1,26.6,13.2,26.6,13.2,26.7z"/>
<path class="st0" d="M3.9,7.8c0.9-1.2,2.3-2,3-1.7C6.8,6.2,6.7,6.4,6.6,6.4C5.7,6.6,4.9,7.1,4.1,7.7C4.1,7.7,4,7.8,3.9,7.8z"/>
<path class="st0" d="M14.1,4.7c-0.1-0.1-0.3-0.2-0.4-0.2c-0.4-0.3-0.8-0.5-1.3-0.6c-0.2,0-0.4-0.1-0.6-0.2c-0.1,0-0.1-0.2-0.1-0.2
	s0.1-0.1,0.2-0.1c0.8,0.1,1.5,0.4,2.1,0.8c0.1,0.1,0.2,0.1,0.2,0.2c0,0.1,0,0.2,0,0.2C14.3,4.6,14.2,4.6,14.1,4.7z"/>
<path class="st0" d="M13.7,3.1c-0.1,0-0.1,0.1-0.1,0c-0.9-0.4-1.8-0.6-2.8-0.6c0,0-0.1-0.1-0.1-0.1C11.2,2,13.2,2.2,13.7,3.1z"/>
<path class="st0" d="M1.5,29c0.1-0.1,0.2-0.3,0.3-0.4c0.5-0.6,1-1.2,1.4-1.8c0.1-0.1,0.2-0.1,0.3-0.2c0,0.1,0.1,0.2,0.1,0.4
	c0,0.1-0.1,0.2-0.2,0.3c-0.5,0.5-1.1,1-1.6,1.5C1.7,29,1.6,29,1.5,29L1.5,29z"/>
<path class="st0" d="M23.6,12.1c-0.1-0.1-0.2-0.1-0.3-0.2c-0.4-0.5-0.8-1-1.1-1.4c-0.2-0.2-0.2-0.5,0-0.7l1.6,2.3L23.6,12.1z"/>
<path class="st0" d="M13.1,31v0.5L12,32.3c-0.2,0.1-0.3,0.3-0.5,0.3s-0.1,0-0.2,0s0-0.2,0-0.2C11.9,32,12.3,31.2,13.1,31z"/>
<path class="st0" d="M17.2,6.7l-2.1-1.8C15.7,4.7,17.1,5.9,17.2,6.7L17.2,6.7z"/>
<path class="st0" d="M22.2,7.3c-0.1,0-0.2,0.1-0.2,0.1c-0.1,0-0.2-0.1-0.2-0.2c-0.4-0.4-0.7-0.9-1.1-1.3c-0.1-0.1-0.1-0.2-0.1-0.3
	c0.1,0,0.3,0,0.3,0.1c0.4,0.5,0.8,1,1.2,1.5C22.2,7.2,22.2,7.2,22.2,7.3z"/>
<path class="st0" d="M19.3,4.5c-0.1-0.1-0.1-0.2-0.2-0.3c-0.2-0.4-0.5-0.7-0.9-0.8c-0.1,0-0.2,0-0.3-0.1c0,0-0.1-0.1-0.1-0.2
	c0-0.1,0.1-0.1,0.2-0.1c0.7-0.1,1.2,0.4,1.3,1.1C19.3,4.3,19.3,4.4,19.3,4.5z"/>
<path class="st0" d="M16.6,35.3c0.5-0.4,1.1-0.7,1.8-0.9c0.1,0,0.2,0.1,0.3,0.1s-0.1,0.2-0.1,0.3c-0.5,0.2-1,0.4-1.5,0.6
	c-0.1,0-0.2,0-0.4,0L16.6,35.3z"/>
<path class="st0" d="M9.9,36.3l0.9-0.1c0.3-0.1,0.6-0.1,1-0.2c0.1,0,0.2,0.1,0.4,0.2c-0.1,0.1-0.2,0.3-0.3,0.3c-0.6,0-1.2,0-1.8,0.1
	c0,0-0.1,0-0.1,0C10,36.4,10,36.3,9.9,36.3z"/>
<path class="st0" d="M1.7,10.6C2,9.8,2.7,9.2,3.6,9C3,9.7,2.4,10.2,1.7,10.6z"/>
<path class="st0" d="M26.2,26.1c-0.2-0.7-0.4-1.4-0.5-2c0,0,0-0.2,0.1-0.2c0.1,0,0.1,0,0.2,0c0.1,0,0.1,0.1,0.1,0.2
	c0.1,0.6,0.2,1.1,0.3,1.7C26.4,25.8,26.3,25.9,26.2,26.1L26.2,26.1z"/>
<path class="st0" d="M4.9,34.8L7,33.7h0.1C7.1,33.8,7.1,34,7,34c-0.5,0.4-1.2,0.7-1.9,0.8L4.9,34.8L4.9,34.8z"/>
<path class="st0" d="M13.4,36.3c0.7-0.3,1.5-0.4,2.3-0.5C15.6,36.4,14.3,36.5,13.4,36.3z"/>
<path class="st0" d="M16.6,7.2l-1.8-1.6C15.4,5.5,16.3,6.3,16.6,7.2L16.6,7.2z"/>
<path class="st0" d="M1.2,24.3c0-0.1,0-0.2,0-0.2c0.1-0.4,0.2-0.9,0.3-1.3c0-0.2,0.2-0.3,0.3-0.4C1.9,22.5,2,22.7,2,22.9
	c-0.1,0.4-0.2,0.8-0.4,1.1C1.5,24.1,1.4,24.2,1.2,24.3L1.2,24.3z"/>
<path class="st0" d="M5.4,28.8c0.2-0.3,0.4-0.6,0.6-0.9c0.2-0.3,0.4-0.5,0.6-0.7C6.7,27.1,6.9,27,7,27c0,0.1,0,0.3,0,0.4
	c-0.2,0.2-0.4,0.4-0.6,0.6c-0.2,0.2-0.4,0.4-0.6,0.6l-0.3,0.3L5.4,28.8z"/>
<path class="st0" d="M13.2,34.7c-0.1,0.1-0.1,0.3-0.2,0.4c-0.5,0.2-1,0.3-1.5,0.5c0.3-0.8,1.1-0.6,1.6-0.9L13.2,34.7z"/>
<path class="st0" d="M19.1,2.7c-0.2-0.1-0.3-0.2-0.4-0.3c-0.2-0.3-0.6-0.5-1-0.5c-0.1,0-0.1,0-0.2-0.1c-0.1-0.1-0.1-0.1-0.2-0.2
	c0.1,0,0.2-0.1,0.3-0.1c0.6,0,1.2,0.4,1.5,0.9C19.2,2.4,19.2,2.5,19.1,2.7L19.1,2.7z"/>
<path class="st0" d="M9.5,37h0.5c0.4,0,0.9,0,1.4,0c0.1,0,0.2,0.1,0.3,0.2c-0.1,0.1-0.2,0.2-0.3,0.2C10.7,37.5,10.1,37.4,9.5,37
	L9.5,37z"/>
<path class="st0" d="M22.4,33.7c-0.1,0.1-0.1,0.3-0.2,0.3L22,34.1l0,0c0-0.1-0.1-0.2-0.2-0.3l0.1-0.1C22.1,33.7,22.2,33.7,22.4,33.7
	z"/>
<path class="st0" d="M11.6,34.4c0.3-0.4,0.7-0.7,1.2-0.9c0.1,0,0.3-0.1,0.3,0.2C12.8,34.2,12.2,34.5,11.6,34.4z"/>
<path class="st0" d="M14.3,37.3c-0.1,0-0.2,0.1-0.3,0.1c-0.5,0-1,0-1.6,0c-0.1,0-0.2-0.1-0.3-0.2c0.1-0.1,0.2-0.2,0.3-0.2
	c0.1,0,0.3,0,0.4,0h0.9h0.5L14.3,37.3z"/>
<path class="st0" d="M7.2,11.2c-0.1,0.1-0.2,0.2-0.3,0.3c-0.4,0.3-0.8,0.6-1.3,0.8c-0.1,0-0.2,0-0.3,0s0-0.2,0-0.2
	c0.5-0.3,1.1-0.7,1.6-1C7.8,10.6,7.1,11.2,7.2,11.2z"/>
<path class="st0" d="M9.8,2L7.5,2.3C7.9,1.8,9.4,1.6,9.8,2z"/>
<path class="st0" d="M17.9,33c-0.5,0.4-1.2,0.7-1.8,0.8c-0.1,0-0.2-0.1-0.2-0.1c0.1-0.1,0.3-0.2,0.5-0.2c0.5-0.1,1-0.3,1.3-0.7
	c0,0,0.2,0,0.3,0l0,0C17.9,32.8,18,32.9,17.9,33z"/>
<path class="st0" d="M8.6,12.2c-0.1,0.2-0.2,0.3-0.4,0.4c-0.3,0.2-0.7,0.2-1,0.1c-0.1,0-0.1-0.1-0.2-0.2l0.2-0.2l0,0l1.2-0.2
	L8.6,12.2z"/>
<path class="st0" d="M18.2,33.9C18.2,33.9,18.2,34,18.2,33.9l-1.5,0.6c-0.1,0-0.1,0-0.2-0.1c0,0,0-0.2,0.1-0.2
	c0.5-0.1,1-0.3,1.5-0.4C18.1,33.8,18.2,33.8,18.2,33.9z"/>
<path class="st0" d="M0.4,24.1c0-0.3,0.1-0.5,0.1-0.8s0.2-0.7,0.3-1c0-0.1,0.1-0.1,0.1-0.1S1,22.2,1,22.3c-0.2,0.6-0.1,1.3-0.6,1.8
	L0.4,24.1z"/>
<path class="st0" d="M11.8,1.3c-0.5,0.2-1,0.2-1.4,0c-0.2-0.1-0.1-0.2,0.1-0.3C10.9,1,11.4,1.1,11.8,1.3z"/>
<path class="st0" d="M1.1,27.1c0-0.7,0.3-1.3,0.7-1.8c0,0,0.1-0.1,0.2-0.1c0,0,0.1,0.1,0.1,0.2C1.8,26,1.5,26.5,1.1,27.1
	C1.2,27.1,1.2,27.1,1.1,27.1z"/>
<path class="st0" d="M15.2,1.1c0.3,0.2,0.7,0.3,1,0.5c0.1,0.1,0.1,0.2,0.1,0.4c-0.1,0-0.2,0-0.3,0c-0.2-0.1-0.5-0.2-0.7-0.4
	c-0.1-0.1-0.1-0.2-0.2-0.3L15.2,1.1z"/>
<path class="st0" d="M9.4,35.9c-0.4,0.4-1,0.6-1.5,0.3C8.3,35.9,9.2,35.7,9.4,35.9z"/>
<path class="st0" d="M26.4,24.5c-0.1-0.4-0.2-0.9-0.3-1.3c0-0.1,0.1-0.2,0.1-0.3c0.1,0.1,0.2,0.1,0.2,0.2c0,0.4,0.1,0.9,0.1,1.3
	L26.4,24.5z"/>
<path class="st0" d="M14,34.5c0.4-0.2,0.8-0.4,1.1-0.5c0.1,0,0.2,0,0.3,0.1c-0.1,0.1-0.1,0.3-0.2,0.3c-0.4,0.1-0.8,0.2-1.2,0.3
	L14,34.5z"/>
<path class="st0" d="M1.3,13.7c-0.2,0.5-0.5,1-0.8,1.4C0.3,14.8,0.8,13.9,1.3,13.7z"/>
<path class="st0" d="M22,8.2c0.4,0.3,0.7,0.8,0.8,1.3C22.3,9.3,22,8.8,22,8.2z"/>
<path class="st0" d="M13.2,0.8c0.5-0.1,1,0,1.3,0.3C14.1,1.3,13.5,1.2,13.2,0.8z"/>
<path class="st0" d="M22.1,5.9c-0.3-0.4-1-0.5-0.7-1.2C21.7,5,22,5.4,22.1,5.9z"/>
<path class="st0" d="M7.4,2.7c0,0,0.1,0,0.2,0.1s0,0.2-0.1,0.3C7.3,3.2,7.1,3.3,6.9,3.3c0,0-0.2-0.2-0.1-0.2
	C6.8,2.9,7.1,2.7,7.4,2.7z"/>
<path class="st0" d="M13.4,1.4c0.4,0,0.7,0.3,0.7,0.5c0,0.1-0.1,0.1-0.2,0.2c-0.3,0-0.7-0.3-0.6-0.5S13.3,1.5,13.4,1.4z"/>
<path class="st0" d="M7.5,9.4C7.2,9.8,6.9,9.9,6.5,10c-0.1,0-0.1,0-0.2-0.1c0-0.1,0-0.1,0.1-0.2C6.7,9.5,7.1,9.4,7.5,9.4z"/>
<path class="st0" d="M23.4,8.7c0.5,0.1,0.8,0.7,0.8,1.4L23.4,8.7z"/>
<path class="st0" d="M9.7,2.6C9.6,2.6,9.5,2.7,9.4,2.7C9.2,2.8,9,2.8,8.8,2.8c-0.1,0-0.2-0.1-0.3-0.1c0.1-0.1,0.1-0.2,0.2-0.2
	C9.1,2.5,9.4,2.5,9.7,2.6L9.7,2.6z"/>
<path class="st0" d="M20.8,4.2c-0.5-0.2-0.9-0.6-1-1.1C20.3,3.4,20.6,3.8,20.8,4.2z"/>
<path class="st0" d="M25.4,14.3c-0.3-0.4-0.7-0.7-0.7-1.3C25.1,13.3,25.3,13.8,25.4,14.3z"/>
<path class="st0" d="M4.4,5.9C4.5,6,4.6,6,4.6,6.1s0,0.2-0.1,0.3C4.3,6.4,4.1,6.5,3.9,6.5c0,0-0.2-0.1-0.2-0.1c0-0.1,0-0.2,0.1-0.2
	C4,6.1,4.2,6,4.4,5.9z"/>
<path class="st0" d="M9.1,0.8l0.4,0.3C9.4,1.2,9.3,1.2,9.1,1.2C8.9,1.2,8.6,1.3,8.6,1C8.7,0.9,8.9,0.9,9.1,0.8z"/>
<path class="st0" d="M14.5,3.2c0.5,0,0.9,0.3,1,0.7C15.1,3.9,14.7,3.6,14.5,3.2z"/>
<path class="st0" d="M7.3,26.7c-0.1-0.4,0.1-0.7,0.4-0.9c0.2,0.3,0.1,0.7-0.2,0.8C7.4,26.7,7.4,26.7,7.3,26.7z"/>
<path class="st0" d="M10.1,3.3c0.3-0.3,0.6-0.4,1-0.3c0.1,0,0.1,0.1,0.1,0.2c0,0-0.1,0.1-0.1,0.1C10.8,3.4,10.5,3.3,10.1,3.3z"/>
<path class="st0" d="M6.2,3.4C6,3.8,5.6,4,5.2,4C5.4,3.6,5.8,3.4,6.2,3.4z"/>
<path class="st0" d="M2.7,8.8C2.8,8.4,3.1,8.1,3.5,8C3.4,8.4,3.1,8.7,2.7,8.8z"/>
<path class="st0" d="M0.6,25.9c0-0.4,0.1-0.7,0.4-0.9C1.1,25.4,0.9,25.8,0.6,25.9C0.6,25.9,0.6,25.9,0.6,25.9z"/>
<path class="st0" d="M22.7,6.3l0.5,1.1c-0.4-0.2-0.7-0.6-0.7-1.1L22.7,6.3z"/>
<path class="st0" d="M12.5,8.5c-0.4,0.1-0.7-0.2-0.8-0.5C12.1,7.9,12.4,8.1,12.5,8.5z"/>
<path class="st0" d="M14.8,37c0.2-0.1,0.5-0.1,0.7-0.2c0.1,0,0.2,0.1,0.2,0.1s-0.1,0.2-0.2,0.2c-0.2,0-0.5,0-0.7,0L14.8,37z"/>
<path class="st0" d="M24.3,11.1l0.6,1.1h-0.1c-0.3-0.3-0.5-0.7-0.6-1.1L24.3,11.1z"/>
<path class="st0" d="M8.1,35.4c0.2-0.1,0.4-0.2,0.6-0.3c0.1,0,0.1,0,0.2,0c0,0.1,0,0.1,0,0.2C8.7,35.5,8.4,35.6,8.1,35.4L8.1,35.4z"
	/>
<path class="st0" d="M10.1,35.3l0.8-0.4c0,0.5-0.4,0.6-0.8,0.5L10.1,35.3z"/>
<path class="st0" d="M11.4,0.2c-0.2,0.2-0.5,0.3-0.9,0.1C10.8,0,11.2-0.1,11.4,0.2z"/>
<path class="st0" d="M26.1,19.8c-0.3-0.2-0.5-0.6-0.5-1h0.1L26.1,19.8z"/>
<path class="st0" d="M13.1,27.2v0.3c-0.1,0-0.3-0.1-0.4-0.2L13.1,27.2z"/>
<path class="st0" d="M3.5,6.8C3.4,7,3.3,7.2,3.2,7.3c-0.1,0-0.2,0-0.2,0c0-0.1,0-0.2,0-0.2C3.1,7,3.3,6.8,3.4,6.7L3.5,6.8z"/>
<path class="st0" d="M12.2,1.2H13C12.7,1.6,12.4,1.6,12.2,1.2L12.2,1.2z"/>
<path class="st0" d="M20.1,5.2l-0.3-0.3c0.1-0.1,0.2-0.2,0.4-0.2s0.2,0.2,0.3,0.2L20.1,5.2z"/>
<path class="st0" d="M7.4,35.7c-0.3,0.1-0.7,0.2-1,0.1v-0.1l1-0.1V35.7z"/>
<path class="st0" d="M23.3,9.9l0.5,0.8c-0.3,0-0.6-0.3-0.5-0.7C23.3,10,23.3,9.9,23.3,9.9z"/>
<path class="st0" d="M7.8,11.9L7,12.1c0.1-0.4,0.4-0.5,0.8-0.3L7.8,11.9z"/>
<path class="st0" d="M16.9,2c0.3,0.1,0.5,0.3,0.5,0.7L16.9,2L16.9,2z"/>
<path class="st0" d="M0,18.3c-0.1-0.3,0-0.7,0.3-0.8C0.5,17.9,0.3,18.1,0,18.3z"/>
<path class="st0" d="M7.4,33.6c0.1-0.4,0.2-0.5,0.5-0.5C7.9,33.5,7.8,33.6,7.4,33.6z"/>
<path class="st0" d="M22.9,8.5l-0.4-0.7l0.1-0.1c0.2,0.2,0.4,0.4,0.4,0.7L22.9,8.5z"/>
<path class="st0" d="M6.6,10.4l0.5-0.2c0,0.1,0.1,0.1,0.1,0.2l-0.5,0.2L6.6,10.4z"/>
<path class="st0" d="M3.4,5.6l0.6-0.3l0.1,0.1L3.5,5.8L3.4,5.6z"/>
<path class="st0" d="M8.2,11.6l0.5-0.1C8.6,11.8,8.5,11.9,8.2,11.6z"/>
<path class="st0" d="M5.9,13.8l0.4-0.3c0,0,0.1,0.1,0.1,0.1L6,14L5.9,13.8z"/>
<path class="st0" d="M7.2,13.3l-0.4,0.1c0-0.1,0-0.2,0-0.2c0.1,0,0.2-0.1,0.4-0.1L7.2,13.3z"/>
<path class="st0" d="M8.5,15.3c-0.1,0-0.2,0-0.4,0c0,0,0-0.1,0-0.2h0.4L8.5,15.3z"/>
<path class="st1" d="M23.9,27.5c0,0.1,0,0.2,0,0.3l0.1-0.1L23.9,27.5z M13.1,26.6v0.2c0-0.1,0.1-0.1,0.1-0.2
	C13.2,26.6,13.1,26.6,13.1,26.6z M14.9,33.5l0.2-0.2l0.7-0.6"/>
</svg>
